<?xml version="1.0" encoding="utf-8"?>
<!-- Generator: Adobe Illustrator 16.0.0, SVG Export Plug-In . SVG Version: 6.00 Build 0)  -->
<!DOCTYPE svg PUBLIC "-//W3C//DTD SVG 1.1//EN" "http://www.w3.org/Graphics/SVG/1.1/DTD/svg11.dtd">
<svg version="1.1" xmlns="http://www.w3.org/2000/svg" xmlns:xlink="http://www.w3.org/1999/xlink" x="0px" y="0px"
	 width="297.463px" height="277.146px" viewBox="0 0 297.463 277.146" enable-background="new 0 0 297.463 277.146"
	 xml:space="preserve">
<g id="Livello_1">
	<g>
		<g>
			<defs>
				<path id="XMLID_1_" d="M71.915,118.993c-8.891-9.093-9.771-23.597-2.637-34.588c4.633-7.136,10.906-12.337,18.791-15.568
					c1.852-0.76,3.762-1.288,5.773-1.238c2.607,0.063,3.459,1.036,2.984,3.621c-0.852,4.647-1.059,9.313-0.402,13.979
					c1.301,9.223,5.654,17,11.703,23.91c1.547,1.767,3.256,3.394,4.893,5.085c0.713,0.54,1.443,1.063,2.137,1.629
					c1.887,1.538,2.137,3.358,0.639,5.529c-2.098,3.04-5.16,4.607-8.676,5.411C94.155,129.727,81.823,129.128,71.915,118.993z
					 M114.005,107.814c4.699,6,10.369,10.111,18.473,9.343c4.148-0.393,8.18-1.143,11.121-4.541c0.709-0.82,1.148-1.505,0.117-2.494
					c-1.314-1.262-1.98-2.977-2.738-4.61c-2.094-4.511-3.133-9.336-4.271-14.133c-2.053-12.818-1.475-25.313,4.404-37.205
					c1.244-2.517,0.574-4.55-1.691-6.187c-1.451-1.046-3.111-1.485-4.846-1.724c-5.059-0.697-9.773,0.734-14.428,2.405
					c-15.018,5.395-23.029,20.471-19.285,35.955C103.038,93.635,108.052,100.976,114.005,107.814z M72.53,158.015
					c11.268,0.801,21.281-2.824,30.043-9.902c1.27-1.026,2.516-2.143,3.146-3.741c2.018-2.543,3.062-5.433,2.807-8.678
					c-0.145-1.839-0.732-3.537-2.916-3.963c-1.201-1.127-2.629-0.677-3.973-0.503c-6.098,0.791-12.17,0.826-18.262-0.141
					c-7.008-1.112-12.926-3.885-16.979-10.033c-1.578-2.399-4.289-2.92-7.053-1.657c-3.846,1.757-5.85,5.026-6.762,8.958
					c-1.432,6.158,0.117,11.941,2.607,17.544C58.528,153.417,64.536,157.446,72.53,158.015z M140.448,90.345
					c0.631,6.587,2.51,12.753,6.389,18.176c3.633,5.079,8.551,7.579,14.895,7.194c1.547-0.094,2.088-0.328,1.439-1.966
					c-1.004-2.539-1.293-5.266-1.779-7.943c-1.031-5.704-0.332-11.344,0.42-16.989c0.635-2.274,1.008-4.663,1.951-6.801
					c3.217-7.315,7.664-13.783,13.543-19.291c3.818-3.577,3.312-8.273-0.871-11.476c-2.92-2.235-6.381-3.094-9.877-3.676
					c-11.168-1.861-20.209,1.458-24.699,13.022C138.081,70.323,138.862,80.33,140.448,90.345z M113.636,196.8
					c3.006-3.895,5.467-8.078,5.586-13.222c0.037-4.431-1.721-7.871-5.576-10.105c-3.428-1.983-6.592-1.285-8.85,1.834
					c-1.613,2.228-3.57,4.086-5.832,5.658c-6.031,4.191-12.865,6.184-19.965,7.61c-5.443,1.095-7.295,5.403-4.66,10.312
					c4.711,8.784,16.275,12.932,25.467,9.106C105.507,205.621,109.925,201.609,113.636,196.8z M221.854,85.946
					c-3.982-4.245-9.346-4.801-14.451-1.874c-6.488,3.719-11.221,9.301-15.799,15.034c-3.154,3.399-5.582,7.304-7.785,11.349
					c-2.053,3.771-3.773,7.678-4.379,11.993c-0.562,4.018,0.65,5.715,4.631,6.31c0.73,0.109,1.475,0.199,2.209,0.192
					c8.672-0.078,16.92-2.195,24.982-5.202c2.527-0.8,5.018-1.669,7.402-2.875c5.111-2.584,8.904-6.397,10.152-12.018
					C230.776,100.024,227.897,92.385,221.854,85.946z M75.521,184.817c11.283-0.754,20.295-5.691,26.852-14.946
					c2.252-3.182,3.225-6.844,2.889-10.791c-0.387-4.569-2.898-5.917-6.705-3.539c-5.801,3.624-12.064,6.024-18.85,6.849
					c-5.861,0.713-11.475-0.298-16.82-2.91c-2.896-1.417-4.924-0.391-5.807,2.69c-0.227,0.787-0.41,1.614-0.434,2.43
					C56.397,173.033,62.468,185.353,75.521,184.817z M176.597,68.592c-5.064,5.724-8.701,12.426-11.062,19.754
					c-3.473,9.492-3.145,18.738,1.961,27.595c1.799,3.118,4.246,5.701,7.447,7.466c2.287,1.263,2.844,0.954,3.061-1.58
					c0.127-1.479,0.242-2.963,0.482-4.425c1.293-7.902,5.701-14.265,10.234-20.56c3.635-4.511,7.766-8.549,12.146-12.305
					c4.506-3.858,6.748-9.788,5.182-14.539c-1.613-4.891-7.889-9.285-13.436-9.521C185.737,60.185,180.747,63.9,176.597,68.592z
					 M137.554,191.954c-1.727-3.502-4.908-5.155-8.715-5.117c-3.748,0.037-6.26,2.08-7.635,5.63
					c-2.291,5.917-6.334,10.361-11.75,13.618c-2.195,1.32-4.34,2.733-6.033,4.708c-2.535,2.958-2.66,6.111,0.027,8.838
					c3.879,3.932,8.441,6.604,14.424,6.518c6.033,0.052,10.912-2.752,14.9-7.289c2.574-2.927,4.068-6.362,5.182-10.154
					C139.636,202.979,140.253,197.427,137.554,191.954z M146.581,191.735c-4.975,0.543-6.004,2.067-5.238,6.599
					c0.559,3.31,1.299,6.639,0.855,10.055c-0.533,4.138-2.629,7.582-4.76,11.028c-3.02,4.885-1.232,9.44,4.223,11.282
					c5.203,1.758,9.805,0.531,13.871-2.755c5.895-4.765,7.893-11.351,8.154-18.957c-0.096-0.929-0.23-2.155-0.354-3.382
					C162.505,197.409,154.755,190.845,146.581,191.735z M183.151,195.513c-3.217-2.854-7.979-3.062-12.988-0.421
					c-3.932,2.072-4.486,3.383-3.668,8.859c0.615,4.117,0.633,8.241,0.17,12.367c-0.549,4.886,2.061,8.196,6.949,8.627
					c1.395,0.122,2.814,0.1,4.215,0.007c7.748-0.514,12.066-5.155,11.984-14.666C189.61,205.769,188.155,199.95,183.151,195.513z
					 M201.89,186.944c-4.242,0.235-8.779,1.029-12.797,3.604c-2.199,1.409-2.303,2.221-0.666,4.001
					c1.701,1.852,2.98,3.914,3.768,6.325c0.916,2.797,0.803,5.7,1.111,8.559c0.504,4.684,3.072,6.054,7.139,3.686
					c3.613-2.104,6.578-4.985,9.293-8.118c1.914-2.207,3.707-4.618,3.795-7.63C213.698,191.755,210.126,186.757,201.89,186.944z
					 M220.335,172.629c-5.391,2.183-9.75,5.833-13.594,10.127c-0.369,0.413-0.873,0.9-0.619,1.519
					c0.289,0.701,1.008,0.397,1.537,0.401c3.139,0.026,5.914,0.8,7.541,3.771c1.127,2.059,1.541,4.333,1.734,6.652
					c0.039,0.464-0.143,1.079,0.469,1.281c0.576,0.189,0.906-0.316,1.193-0.688c4.242-5.525,7.098-11.66,8.117-17.77
					C226.747,172.854,224.271,171.037,220.335,172.629z M182.751,130.827c-1.328-0.086-1.27,0.688-1.328,1.521
					c-0.252,3.475,2.146,6.811,6.375,7.774c10.227,2.33,19.674,0.672,27.812-6.382c5.035-4.187,8.701-9.353,11.139-15.433
					c-4.23,3.235-8.912,5.578-13.641,7.843C203.28,129.594,193.212,131.516,182.751,130.827z M149.718,124.172
					c0.047,2.834,2,5.207,4.299,5.218c2.219,0.01,4.314-2.548,4.301-5.253c-0.014-2.726-2.057-5.308-4.225-5.339
					C151.714,118.763,149.673,121.272,149.718,124.172z M111.401,159.137c-0.051,2.009,1.639,3.679,3.791,3.751
					c2.871,0.094,6.17-2.843,6.229-5.545c0.047-2.054-1.572-3.662-3.781-3.754C114.634,153.464,111.472,156.276,111.401,159.137z
					 M126.144,130.436c-0.002-2.961-2.645-5.356-5.9-5.351c-2.461,0.006-4.127,1.461-4.133,3.606
					c-0.006,2.718,2.955,5.332,6.047,5.336C124.728,134.031,126.147,132.754,126.144,130.436z M133.659,183.116
					c0.176,1.788,1.117,2.905,3.1,2.752c2.229-0.052,4.289-2.307,4.217-4.63c-0.061-1.883-1.074-2.937-2.928-2.972
					C135.841,178.227,133.442,180.879,133.659,183.116z M171.858,185.08c-1.689-0.004-2.262,1.368-2.295,2.973
					c0.086,1.795,0.834,3.312,2.783,3.391c1.838,0.075,2.498-1.433,2.418-3.044C174.679,186.62,173.835,185.085,171.858,185.08z
					 M198.519,180.226c-0.051-1.612-0.791-3.001-2.453-3.111c-1.516-0.101-2.32,1.371-2.27,2.678
					c0.055,1.456,0.699,3.043,2.512,3.127C197.948,182.996,198.472,181.749,198.519,180.226z"/>
			</defs>
			<use xlink:href="#XMLID_1_"  overflow="visible" fill-rule="evenodd" clip-rule="evenodd" fill="#263A21"/>
			<clipPath id="XMLID_5_">
				<use xlink:href="#XMLID_1_"  overflow="visible"/>
			</clipPath>
			<path clip-path="url(#XMLID_5_)" fill-rule="evenodd" clip-rule="evenodd" fill="#95C11F" d="M98.671,133.172
				c0-22.575,22.871-40.877,54.146-40.877s56.629,18.302,56.629,40.877c0,12.896,10.336,51.908-24.555,53.768
				c-9.596,0.511-5.561,5.323-12.723,6.297c-2.648,0.358-14.533-2.347-18.15-2.347C122.743,190.89,98.671,155.747,98.671,133.172z"
				/>
		</g>
	</g>
</g>
<g id="Modalità_Isolamento">
</g>
</svg>
