<?xml version="1.0" encoding="UTF-8" standalone="no"?>
<!DOCTYPE svg PUBLIC "-//W3C//DTD SVG 1.1//EN" "http://www.w3.org/Graphics/SVG/1.1/DTD/svg11.dtd">
<svg width="100%" height="100%" viewBox="0 0 1240 1155" version="1.1" xmlns="http://www.w3.org/2000/svg" xmlns:xlink="http://www.w3.org/1999/xlink" xml:space="preserve" xmlns:serif="http://www.serif.com/" style="fill-rule:evenodd;clip-rule:evenodd;stroke-linejoin:round;stroke-miterlimit:2;">
    <g transform="matrix(4.16667,0,0,4.16667,0,0)">
        <g id="Livello_1">
            <g>
                <g>
                    <path id="XMLID_1_" d="M71.915,118.993C63.024,109.9 62.144,95.396 69.278,84.405C73.911,77.269 80.184,72.068 88.069,68.837C89.921,68.077 91.831,67.549 93.842,67.599C96.449,67.662 97.301,68.635 96.826,71.22C95.974,75.867 95.767,80.533 96.424,85.199C97.725,94.422 102.078,102.199 108.127,109.109C109.674,110.876 111.383,112.503 113.02,114.194C113.733,114.734 114.463,115.257 115.157,115.823C117.044,117.361 117.294,119.181 115.796,121.352C113.698,124.392 110.636,125.959 107.12,126.763C94.155,129.727 81.823,129.128 71.915,118.993ZM114.005,107.814C118.704,113.814 124.374,117.925 132.478,117.157C136.626,116.764 140.658,116.014 143.599,112.616C144.308,111.796 144.747,111.111 143.716,110.122C142.402,108.86 141.736,107.145 140.978,105.512C138.884,101.001 137.845,96.176 136.707,91.379C134.654,78.561 135.232,66.066 141.111,54.174C142.355,51.657 141.685,49.624 139.42,47.987C137.969,46.941 136.309,46.502 134.574,46.263C129.515,45.566 124.801,46.997 120.146,48.668C105.128,54.063 97.117,69.139 100.861,84.623C103.038,93.635 108.052,100.976 114.005,107.814ZM72.53,158.015C83.798,158.816 93.811,155.191 102.573,148.113C103.843,147.087 105.089,145.97 105.719,144.372C107.737,141.829 108.781,138.939 108.526,135.694C108.381,133.855 107.794,132.157 105.61,131.731C104.409,130.604 102.981,131.054 101.637,131.228C95.539,132.019 89.467,132.054 83.375,131.087C76.367,129.975 70.449,127.202 66.396,121.054C64.818,118.655 62.107,118.134 59.343,119.397C55.497,121.154 53.493,124.423 52.581,128.355C51.149,134.513 52.698,140.296 55.188,145.899C58.528,153.417 64.536,157.446 72.53,158.015ZM140.448,90.345C141.079,96.932 142.958,103.098 146.837,108.521C150.47,113.6 155.388,116.1 161.732,115.715C163.279,115.621 163.82,115.387 163.171,113.749C162.167,111.21 161.878,108.483 161.392,105.806C160.361,100.102 161.06,94.462 161.812,88.817C162.447,86.543 162.82,84.154 163.763,82.016C166.98,74.701 171.427,68.233 177.306,62.725C181.124,59.148 180.618,54.452 176.435,51.249C173.515,49.014 170.054,48.155 166.558,47.573C155.39,45.712 146.349,49.031 141.859,60.595C138.081,70.323 138.862,80.33 140.448,90.345ZM113.636,196.8C116.642,192.905 119.103,188.722 119.222,183.578C119.259,179.147 117.501,175.707 113.646,173.473C110.218,171.49 107.054,172.188 104.796,175.307C103.183,177.535 101.226,179.393 98.964,180.965C92.933,185.156 86.099,187.149 78.999,188.575C73.556,189.67 71.704,193.978 74.339,198.887C79.05,207.671 90.614,211.819 99.806,207.993C105.507,205.621 109.925,201.609 113.636,196.8ZM221.854,85.946C217.872,81.701 212.508,81.145 207.403,84.072C200.915,87.791 196.182,93.373 191.604,99.106C188.45,102.505 186.022,106.41 183.819,110.455C181.766,114.226 180.046,118.133 179.44,122.448C178.878,126.466 180.09,128.163 184.071,128.758C184.801,128.867 185.546,128.957 186.28,128.95C194.952,128.872 203.2,126.755 211.262,123.748C213.789,122.948 216.28,122.079 218.664,120.873C223.775,118.289 227.568,114.476 228.816,108.855C230.776,100.024 227.897,92.385 221.854,85.946ZM75.521,184.817C86.804,184.063 95.816,179.126 102.373,169.871C104.625,166.689 105.598,163.027 105.262,159.08C104.875,154.511 102.364,153.163 98.557,155.541C92.756,159.165 86.493,161.565 79.707,162.39C73.846,163.103 68.232,162.092 62.887,159.48C59.991,158.063 57.963,159.089 57.08,162.17C56.853,162.957 56.67,163.784 56.646,164.6C56.397,173.033 62.468,185.353 75.521,184.817ZM176.597,68.592C171.533,74.316 167.896,81.018 165.535,88.346C162.062,97.838 162.39,107.084 167.496,115.941C169.295,119.059 171.742,121.642 174.943,123.407C177.23,124.67 177.787,124.361 178.004,121.827C178.131,120.348 178.246,118.864 178.486,117.402C179.779,109.5 184.187,103.137 188.72,96.842C192.355,92.331 196.486,88.293 200.866,84.537C205.372,80.679 207.614,74.749 206.048,69.998C204.435,65.107 198.159,60.713 192.612,60.477C185.737,60.185 180.747,63.9 176.597,68.592ZM137.554,191.954C135.827,188.452 132.646,186.799 128.839,186.837C125.091,186.874 122.579,188.917 121.204,192.467C118.913,198.384 114.87,202.828 109.454,206.085C107.259,207.405 105.114,208.818 103.421,210.793C100.886,213.751 100.761,216.904 103.448,219.631C107.327,223.563 111.889,226.235 117.872,226.149C123.905,226.201 128.784,223.397 132.772,218.86C135.346,215.933 136.84,212.498 137.954,208.706C139.636,202.979 140.253,197.427 137.554,191.954ZM146.581,191.735C141.606,192.278 140.577,193.802 141.343,198.334C141.902,201.644 142.642,204.973 142.198,208.389C141.665,212.527 139.569,215.971 137.438,219.417C134.418,224.302 136.206,228.857 141.661,230.699C146.864,232.457 151.466,231.23 155.532,227.944C161.427,223.179 163.425,216.593 163.686,208.987C163.59,208.058 163.456,206.832 163.332,205.605C162.505,197.409 154.755,190.845 146.581,191.735ZM183.151,195.513C179.934,192.659 175.172,192.451 170.163,195.092C166.231,197.164 165.677,198.475 166.495,203.951C167.11,208.068 167.128,212.192 166.665,216.318C166.116,221.204 168.726,224.514 173.614,224.945C175.009,225.067 176.428,225.045 177.829,224.952C185.577,224.438 189.895,219.797 189.813,210.286C189.61,205.769 188.155,199.95 183.151,195.513ZM201.89,186.944C197.648,187.179 193.111,187.973 189.093,190.548C186.894,191.957 186.79,192.769 188.427,194.549C190.128,196.401 191.407,198.463 192.195,200.874C193.111,203.671 192.998,206.574 193.306,209.433C193.81,214.117 196.378,215.487 200.445,213.119C204.058,211.015 207.023,208.134 209.738,205.001C211.652,202.794 213.445,200.383 213.533,197.371C213.698,191.755 210.126,186.757 201.89,186.944ZM220.335,172.629C214.944,174.812 210.585,178.462 206.741,182.756C206.372,183.169 205.868,183.656 206.122,184.275C206.411,184.976 207.13,184.672 207.659,184.676C210.798,184.702 213.573,185.476 215.2,188.447C216.327,190.506 216.741,192.78 216.934,195.099C216.973,195.563 216.791,196.178 217.403,196.38C217.979,196.569 218.309,196.064 218.596,195.692C222.838,190.167 225.694,184.032 226.713,177.922C226.747,172.854 224.271,171.037 220.335,172.629ZM182.751,130.827C181.423,130.741 181.481,131.515 181.423,132.348C181.171,135.823 183.569,139.159 187.798,140.122C198.025,142.452 207.472,140.794 215.61,133.74C220.645,129.553 224.311,124.387 226.749,118.307C222.519,121.542 217.837,123.885 213.108,126.15C203.28,129.594 193.212,131.516 182.751,130.827ZM149.718,124.172C149.765,127.006 151.718,129.379 154.017,129.39C156.236,129.4 158.331,126.842 158.318,124.137C158.304,121.411 156.261,118.829 154.093,118.798C151.714,118.763 149.673,121.272 149.718,124.172ZM111.401,159.137C111.35,161.146 113.04,162.816 115.192,162.888C118.063,162.982 121.362,160.045 121.421,157.343C121.468,155.289 119.849,153.681 117.64,153.589C114.634,153.464 111.472,156.276 111.401,159.137ZM126.144,130.436C126.142,127.475 123.499,125.08 120.244,125.085C117.783,125.091 116.117,126.546 116.111,128.691C116.105,131.409 119.066,134.023 122.158,134.027C124.728,134.031 126.147,132.754 126.144,130.436ZM133.659,183.116C133.835,184.904 134.776,186.021 136.759,185.868C138.988,185.816 141.048,183.561 140.976,181.238C140.915,179.355 139.902,178.301 138.048,178.266C135.841,178.227 133.442,180.879 133.659,183.116ZM171.858,185.08C170.169,185.076 169.596,186.448 169.563,188.053C169.649,189.848 170.397,191.365 172.346,191.444C174.184,191.519 174.844,190.011 174.764,188.4C174.679,186.62 173.835,185.085 171.858,185.08ZM198.519,180.226C198.468,178.614 197.728,177.225 196.066,177.115C194.55,177.014 193.746,178.486 193.796,179.793C193.851,181.249 194.495,182.836 196.308,182.92C197.948,182.996 198.472,181.749 198.519,180.226Z" style="fill:rgb(38,58,33);"/>
                    <clipPath id="_clip1">
                        <path d="M71.915,118.993C63.024,109.9 62.144,95.396 69.278,84.405C73.911,77.269 80.184,72.068 88.069,68.837C89.921,68.077 91.831,67.549 93.842,67.599C96.449,67.662 97.301,68.635 96.826,71.22C95.974,75.867 95.767,80.533 96.424,85.199C97.725,94.422 102.078,102.199 108.127,109.109C109.674,110.876 111.383,112.503 113.02,114.194C113.733,114.734 114.463,115.257 115.157,115.823C117.044,117.361 117.294,119.181 115.796,121.352C113.698,124.392 110.636,125.959 107.12,126.763C94.155,129.727 81.823,129.128 71.915,118.993ZM114.005,107.814C118.704,113.814 124.374,117.925 132.478,117.157C136.626,116.764 140.658,116.014 143.599,112.616C144.308,111.796 144.747,111.111 143.716,110.122C142.402,108.86 141.736,107.145 140.978,105.512C138.884,101.001 137.845,96.176 136.707,91.379C134.654,78.561 135.232,66.066 141.111,54.174C142.355,51.657 141.685,49.624 139.42,47.987C137.969,46.941 136.309,46.502 134.574,46.263C129.515,45.566 124.801,46.997 120.146,48.668C105.128,54.063 97.117,69.139 100.861,84.623C103.038,93.635 108.052,100.976 114.005,107.814ZM72.53,158.015C83.798,158.816 93.811,155.191 102.573,148.113C103.843,147.087 105.089,145.97 105.719,144.372C107.737,141.829 108.781,138.939 108.526,135.694C108.381,133.855 107.794,132.157 105.61,131.731C104.409,130.604 102.981,131.054 101.637,131.228C95.539,132.019 89.467,132.054 83.375,131.087C76.367,129.975 70.449,127.202 66.396,121.054C64.818,118.655 62.107,118.134 59.343,119.397C55.497,121.154 53.493,124.423 52.581,128.355C51.149,134.513 52.698,140.296 55.188,145.899C58.528,153.417 64.536,157.446 72.53,158.015ZM140.448,90.345C141.079,96.932 142.958,103.098 146.837,108.521C150.47,113.6 155.388,116.1 161.732,115.715C163.279,115.621 163.82,115.387 163.171,113.749C162.167,111.21 161.878,108.483 161.392,105.806C160.361,100.102 161.06,94.462 161.812,88.817C162.447,86.543 162.82,84.154 163.763,82.016C166.98,74.701 171.427,68.233 177.306,62.725C181.124,59.148 180.618,54.452 176.435,51.249C173.515,49.014 170.054,48.155 166.558,47.573C155.39,45.712 146.349,49.031 141.859,60.595C138.081,70.323 138.862,80.33 140.448,90.345ZM113.636,196.8C116.642,192.905 119.103,188.722 119.222,183.578C119.259,179.147 117.501,175.707 113.646,173.473C110.218,171.49 107.054,172.188 104.796,175.307C103.183,177.535 101.226,179.393 98.964,180.965C92.933,185.156 86.099,187.149 78.999,188.575C73.556,189.67 71.704,193.978 74.339,198.887C79.05,207.671 90.614,211.819 99.806,207.993C105.507,205.621 109.925,201.609 113.636,196.8ZM221.854,85.946C217.872,81.701 212.508,81.145 207.403,84.072C200.915,87.791 196.182,93.373 191.604,99.106C188.45,102.505 186.022,106.41 183.819,110.455C181.766,114.226 180.046,118.133 179.44,122.448C178.878,126.466 180.09,128.163 184.071,128.758C184.801,128.867 185.546,128.957 186.28,128.95C194.952,128.872 203.2,126.755 211.262,123.748C213.789,122.948 216.28,122.079 218.664,120.873C223.775,118.289 227.568,114.476 228.816,108.855C230.776,100.024 227.897,92.385 221.854,85.946ZM75.521,184.817C86.804,184.063 95.816,179.126 102.373,169.871C104.625,166.689 105.598,163.027 105.262,159.08C104.875,154.511 102.364,153.163 98.557,155.541C92.756,159.165 86.493,161.565 79.707,162.39C73.846,163.103 68.232,162.092 62.887,159.48C59.991,158.063 57.963,159.089 57.08,162.17C56.853,162.957 56.67,163.784 56.646,164.6C56.397,173.033 62.468,185.353 75.521,184.817ZM176.597,68.592C171.533,74.316 167.896,81.018 165.535,88.346C162.062,97.838 162.39,107.084 167.496,115.941C169.295,119.059 171.742,121.642 174.943,123.407C177.23,124.67 177.787,124.361 178.004,121.827C178.131,120.348 178.246,118.864 178.486,117.402C179.779,109.5 184.187,103.137 188.72,96.842C192.355,92.331 196.486,88.293 200.866,84.537C205.372,80.679 207.614,74.749 206.048,69.998C204.435,65.107 198.159,60.713 192.612,60.477C185.737,60.185 180.747,63.9 176.597,68.592ZM137.554,191.954C135.827,188.452 132.646,186.799 128.839,186.837C125.091,186.874 122.579,188.917 121.204,192.467C118.913,198.384 114.87,202.828 109.454,206.085C107.259,207.405 105.114,208.818 103.421,210.793C100.886,213.751 100.761,216.904 103.448,219.631C107.327,223.563 111.889,226.235 117.872,226.149C123.905,226.201 128.784,223.397 132.772,218.86C135.346,215.933 136.84,212.498 137.954,208.706C139.636,202.979 140.253,197.427 137.554,191.954ZM146.581,191.735C141.606,192.278 140.577,193.802 141.343,198.334C141.902,201.644 142.642,204.973 142.198,208.389C141.665,212.527 139.569,215.971 137.438,219.417C134.418,224.302 136.206,228.857 141.661,230.699C146.864,232.457 151.466,231.23 155.532,227.944C161.427,223.179 163.425,216.593 163.686,208.987C163.59,208.058 163.456,206.832 163.332,205.605C162.505,197.409 154.755,190.845 146.581,191.735ZM183.151,195.513C179.934,192.659 175.172,192.451 170.163,195.092C166.231,197.164 165.677,198.475 166.495,203.951C167.11,208.068 167.128,212.192 166.665,216.318C166.116,221.204 168.726,224.514 173.614,224.945C175.009,225.067 176.428,225.045 177.829,224.952C185.577,224.438 189.895,219.797 189.813,210.286C189.61,205.769 188.155,199.95 183.151,195.513ZM201.89,186.944C197.648,187.179 193.111,187.973 189.093,190.548C186.894,191.957 186.79,192.769 188.427,194.549C190.128,196.401 191.407,198.463 192.195,200.874C193.111,203.671 192.998,206.574 193.306,209.433C193.81,214.117 196.378,215.487 200.445,213.119C204.058,211.015 207.023,208.134 209.738,205.001C211.652,202.794 213.445,200.383 213.533,197.371C213.698,191.755 210.126,186.757 201.89,186.944ZM220.335,172.629C214.944,174.812 210.585,178.462 206.741,182.756C206.372,183.169 205.868,183.656 206.122,184.275C206.411,184.976 207.13,184.672 207.659,184.676C210.798,184.702 213.573,185.476 215.2,188.447C216.327,190.506 216.741,192.78 216.934,195.099C216.973,195.563 216.791,196.178 217.403,196.38C217.979,196.569 218.309,196.064 218.596,195.692C222.838,190.167 225.694,184.032 226.713,177.922C226.747,172.854 224.271,171.037 220.335,172.629ZM182.751,130.827C181.423,130.741 181.481,131.515 181.423,132.348C181.171,135.823 183.569,139.159 187.798,140.122C198.025,142.452 207.472,140.794 215.61,133.74C220.645,129.553 224.311,124.387 226.749,118.307C222.519,121.542 217.837,123.885 213.108,126.15C203.28,129.594 193.212,131.516 182.751,130.827ZM149.718,124.172C149.765,127.006 151.718,129.379 154.017,129.39C156.236,129.4 158.331,126.842 158.318,124.137C158.304,121.411 156.261,118.829 154.093,118.798C151.714,118.763 149.673,121.272 149.718,124.172ZM111.401,159.137C111.35,161.146 113.04,162.816 115.192,162.888C118.063,162.982 121.362,160.045 121.421,157.343C121.468,155.289 119.849,153.681 117.64,153.589C114.634,153.464 111.472,156.276 111.401,159.137ZM126.144,130.436C126.142,127.475 123.499,125.08 120.244,125.085C117.783,125.091 116.117,126.546 116.111,128.691C116.105,131.409 119.066,134.023 122.158,134.027C124.728,134.031 126.147,132.754 126.144,130.436ZM133.659,183.116C133.835,184.904 134.776,186.021 136.759,185.868C138.988,185.816 141.048,183.561 140.976,181.238C140.915,179.355 139.902,178.301 138.048,178.266C135.841,178.227 133.442,180.879 133.659,183.116ZM171.858,185.08C170.169,185.076 169.596,186.448 169.563,188.053C169.649,189.848 170.397,191.365 172.346,191.444C174.184,191.519 174.844,190.011 174.764,188.4C174.679,186.62 173.835,185.085 171.858,185.08ZM198.519,180.226C198.468,178.614 197.728,177.225 196.066,177.115C194.55,177.014 193.746,178.486 193.796,179.793C193.851,181.249 194.495,182.836 196.308,182.92C197.948,182.996 198.472,181.749 198.519,180.226Z"/>
                    </clipPath>
                    <g clip-path="url(#_clip1)">
                        <path d="M98.671,133.172C98.671,110.597 121.542,92.295 152.817,92.295C184.092,92.295 209.446,110.597 209.446,133.172C209.446,146.068 219.782,185.08 184.891,186.94C175.295,187.451 179.33,192.263 172.168,193.237C169.52,193.595 157.635,190.89 154.018,190.89C122.743,190.89 98.671,155.747 98.671,133.172Z" style="fill:rgb(149,193,31);"/>
                    </g>
                </g>
            </g>
        </g>
        <g transform="matrix(-0.556171,0.2689,0.2689,0.556171,217.155,-106.697)">
            <g id="hat-v2">
                <g>
                    <path d="M349.471,155.235L341.954,155.855L324.042,138.189L257.377,128.923L238.193,126.254C239.013,110.733 244.281,85.701 274.43,74.179C282.33,71.159 291.19,70.269 300.098,70.977L300.106,70.977C325.21,72.947 344.004,88.737 349.869,103.978C357.815,124.64 349.471,155.235 349.471,155.235Z" style="fill:rgb(232,40,40);fill-rule:nonzero;"/>
                    <path d="M311.963,100.505C304.072,97.152 236.793,93.516 265.278,125.719C265.278,125.719 260.746,126.047 257.377,128.923L238.193,126.254C239.013,110.733 244.281,85.701 274.43,74.179C282.33,71.159 291.19,70.269 300.098,70.977C268.232,77.302 269.726,90.47 269.726,90.47C290.952,90.112 308.657,98.782 311.963,100.505Z" style="fill:rgb(178,15,15);fill-rule:nonzero;"/>
                    <path d="M334.914,127.239C337.552,116.296 332.783,107.491 329.207,100.768C329.207,100.768 337.547,107.524 339.138,113.3C339.138,113.3 340.333,119.714 340.333,127.289C340.333,127.839 338.976,134.401 339.138,134.905C341.765,143.073 343.134,153.693 344.44,155.65L340.333,156.439L336.111,130.05L334.914,127.239Z" style="fill:rgb(178,15,15);fill-rule:nonzero;"/>
                    <path d="M334.558,113.012C332.883,125.733 296.425,125.168 296.425,125.168L322.849,134.905L338.46,131.544L335.962,126.255L336.26,115.998L334.558,113.012Z" style="fill:rgb(178,15,15);fill-rule:nonzero;"/>
                    <path d="M336.441,114.961C334.963,105.876 320.405,102.654 320.405,102.654C320.405,102.654 330.43,102.243 335.484,108.112C340.54,113.981 336.441,114.961 336.441,114.961Z" style="fill:rgb(178,15,15);fill-rule:nonzero;"/>
                    <path d="M312.464,100.768C312.392,100.728 312.249,100.657 312.043,100.546C312.209,100.617 312.352,100.689 312.464,100.768Z" style="fill:rgb(226,71,65);fill-rule:nonzero;"/>
                    <path d="M336.824,103.78C340.008,103.708 345.247,127.438 345.247,134.424L345.247,154.065L340.14,155.236L339.138,113.3L336.824,103.78Z" style="fill:rgb(178,15,15);fill-rule:nonzero;"/>
                    <path d="M341.955,155.853C341.85,154.979 341.13,154.437 340.23,154.101C340.314,153.937 340.399,153.763 340.485,153.574C341.223,151.949 341.14,150.714 340.656,149.776C340.885,149.599 341.096,149.335 341.283,148.962C341.47,148.589 341.632,148.107 341.76,147.497C342.093,145.909 341.971,144.913 341.601,144.297C341.723,143.827 341.781,143.218 341.751,142.432C341.559,137.443 339.768,138.718 338.912,139.629C339.812,138.521 341.751,136.003 341.751,134.836C341.751,134.009 340.553,133.784 339.46,133.749C339.499,133.111 339.233,132.378 338.46,131.544C337.54,130.554 336.76,130.137 336.111,130.05C336.899,129.157 337.085,128.084 334.914,127.239C333.224,126.582 332.022,126.969 331.256,127.614C330.866,126.714 329.294,126.309 327.628,126.479C326.81,126.563 326.393,127.035 326.195,127.627C325.712,127.473 325.088,127.34 324.279,127.239C323.189,127.103 322.323,127.139 321.629,127.289C321.455,126.95 321.169,126.594 320.734,126.226C318.749,124.547 316.95,125.077 315.833,125.762C314.493,123.664 310.561,122.826 309.592,124.947C309.304,125.578 309.219,126.169 309.25,126.71C308.847,126.612 308.378,126.533 307.819,126.479C307.407,126.44 307.038,126.436 306.698,126.456C306.446,125.817 305.542,125.32 303.514,125.168C301.203,124.994 299.821,125.286 299.011,125.766C298.742,125.245 298.012,124.932 296.425,125.168C294.683,125.426 293.478,126.135 292.642,126.932C292.554,126.867 292.47,126.801 292.373,126.733C289.638,124.779 286.84,124.97 284.765,125.616C283.27,125.028 281.009,124.798 279.412,125.168C278.475,125.384 278.02,125.941 277.838,126.61C277.398,126.451 276.85,126.319 276.167,126.226C274.892,126.052 273.872,126.132 273.053,126.356C272.982,125.855 272.445,125.406 271.102,125.109C268.841,124.611 267.439,125.337 266.578,126.292C266.34,126.059 265.93,125.859 265.278,125.719C263.922,125.429 263.159,125.843 262.734,126.465C262.307,125.869 261.297,125.349 259.2,125.155C257.531,125 256.532,125.26 255.96,125.718C255.296,125.43 254.308,125.226 252.87,125.168C250.459,125.07 248.789,125.534 247.628,126.199C244.926,124.779 243.143,125.015 241.985,125.788C241.76,125.425 241.158,125.179 239.956,125.168C235.144,125.122 235.98,129.771 235.98,129.771C235.98,129.771 232.612,126.479 232.053,130.784C231.871,132.186 232.227,132.995 232.79,133.452C232.508,133.955 232.274,134.719 232.132,135.848C231.831,138.231 232.431,139.595 233.245,140.378C232.352,141.797 232.274,142.765 232.635,143.419C232.137,143.837 231.943,144.75 232.359,146.484C232.948,148.937 232.135,148.389 232.948,148.937C232.471,148.563 231.385,148.396 231.103,149.891C230.221,154.59 232.876,154.795 232.876,154.795C232.876,154.795 231.103,155.3 231.103,157.073C231.103,158.845 233.888,158.592 233.888,158.592C233.05,159.263 233.434,161.266 234.525,161.733C234.407,162.734 234.488,163.688 235.155,163.91C236.372,164.316 237.425,163.099 237.796,162.597C237.632,162.963 237.569,163.864 239.206,165.682C240.498,167.118 241.79,166.925 242.667,166.49C241.287,167.605 239.519,169.481 243.258,169.481C244.295,169.481 245.079,169.393 245.674,169.254C245.787,169.719 246.363,170.171 247.816,170.494C249.785,170.931 251.328,170.092 252.447,168.999C253.351,168.991 254.321,168.591 255.202,168.068C254.512,169.086 254.609,170.216 257.185,171.001C260.277,171.941 261.441,170.384 261.854,168.716C262.289,169.043 262.975,169.316 264.022,169.481C265.608,169.731 266.614,169.402 267.253,168.851C267.463,169.539 267.937,170.331 268.833,171.216C270.7,173.064 272.636,171.993 273.903,170.418C274.103,170.603 274.35,170.773 274.657,170.918C276.689,171.879 279.511,170.346 280.932,168.847C281.088,169.048 281.273,169.259 281.494,169.481C282.78,170.766 288.324,172.434 290.01,171.809C290.488,172.401 291.579,172.834 293.638,172.717C296.491,172.558 298.158,171.637 298.947,170.697C299.569,171.205 300.365,171.758 301.235,172.313C302.841,173.334 304.444,172.254 305.274,170.96C305.435,171.016 305.605,171.071 305.794,171.122C307.263,171.516 308.696,171.148 309.784,170.519C310.027,170.637 310.301,170.732 310.605,170.794C312.72,171.216 315.01,171.636 316.445,169.257C317.463,169.263 318.775,169.196 320.48,169.021C321.446,168.922 322.232,168.818 322.87,168.711C323.572,169.077 324.652,169.383 326.305,169.527C330.302,169.875 330.84,168.792 330.457,167.505L330.609,167.502C335.527,167.347 336.246,165.982 336.053,164.931C339.4,164.662 339.936,162.847 339.844,161.473C342.593,161.259 342.206,157.95 341.955,155.853Z" style="fill:rgb(227,230,236);fill-rule:nonzero;"/>
                    <path d="M341.955,155.853L342.349,155.806C342.287,155.269 342.022,154.82 341.662,154.486C341.302,154.148 340.852,153.91 340.369,153.729L340.23,154.101L340.584,154.282C340.67,154.114 340.758,153.934 340.847,153.738C341.248,152.856 341.427,152.062 341.427,151.349C341.427,150.686 341.27,150.098 341.009,149.594L340.656,149.776L340.899,150.09C341.186,149.868 341.432,149.552 341.638,149.139C341.845,148.726 342.015,148.213 342.148,147.578C342.287,146.917 342.352,146.346 342.352,145.85C342.352,145.117 342.21,144.538 341.942,144.092L341.601,144.297L341.986,144.396C342.097,143.967 342.156,143.454 342.156,142.832C342.156,142.698 342.153,142.56 342.148,142.417C342.09,140.966 341.908,140.014 341.617,139.373C341.47,139.053 341.29,138.806 341.068,138.635C340.846,138.462 340.581,138.38 340.332,138.381C339.955,138.384 339.63,138.54 339.348,138.726C339.065,138.915 338.82,139.146 338.622,139.356L338.912,139.629L339.22,139.879C339.675,139.319 340.392,138.405 341.002,137.472C341.307,137.004 341.586,136.533 341.794,136.09C342,135.644 342.144,135.235 342.148,134.836C342.151,134.532 342.026,134.248 341.836,134.05C341.55,133.751 341.166,133.604 340.757,133.504C340.346,133.406 339.9,133.365 339.473,133.351L339.46,133.749L339.856,133.773L339.861,133.627C339.861,132.891 339.519,132.099 338.751,131.273C337.795,130.245 336.941,129.762 336.164,129.656L336.111,130.05L336.409,130.313C336.762,129.91 337.048,129.441 337.053,128.89C337.056,128.493 336.882,128.089 336.548,127.756C336.214,127.42 335.731,127.131 335.058,126.869C334.403,126.613 333.801,126.501 333.258,126.501C332.309,126.5 331.546,126.848 331,127.31L331.256,127.614L331.62,127.456C331.39,126.933 330.91,126.59 330.344,126.37C329.772,126.149 329.09,126.044 328.364,126.044C328.109,126.044 327.849,126.057 327.587,126.084C327.111,126.131 326.713,126.303 326.418,126.563C326.121,126.823 325.933,127.156 325.818,127.5L326.195,127.627L326.315,127.248C325.801,127.085 325.155,126.948 324.329,126.845C323.85,126.785 323.41,126.757 323.005,126.757C322.458,126.757 321.974,126.807 321.545,126.9L321.629,127.289L321.982,127.107C321.779,126.711 321.456,126.317 320.991,125.923C319.954,125.042 318.916,124.707 317.993,124.709C317.043,124.71 316.233,125.05 315.625,125.424L315.833,125.762L316.168,125.548C315.263,124.156 313.464,123.325 311.863,123.315C311.315,123.316 310.784,123.417 310.32,123.653C309.857,123.888 309.463,124.267 309.23,124.782C308.955,125.382 308.846,125.963 308.846,126.499L308.853,126.733L309.25,126.71L309.344,126.323C308.92,126.221 308.432,126.139 307.857,126.083C307.589,126.058 307.338,126.047 307.099,126.047C306.953,126.047 306.812,126.051 306.675,126.059L306.698,126.456L307.068,126.31C306.893,125.866 306.501,125.512 305.931,125.265C305.357,125.015 304.586,124.85 303.544,124.771C303.077,124.736 302.645,124.719 302.246,124.719C300.634,124.72 299.548,124.987 298.808,125.424L299.011,125.766L299.364,125.584C299.222,125.304 298.971,125.064 298.639,124.915C298.306,124.764 297.898,124.691 297.393,124.69C297.089,124.69 296.749,124.717 296.366,124.775C294.546,125.043 293.256,125.796 292.368,126.645L292.642,126.932L292.878,126.612C292.795,126.551 292.708,126.484 292.602,126.409C290.909,125.197 289.166,124.768 287.59,124.77C286.516,124.77 285.518,124.965 284.647,125.236L284.765,125.616L284.911,125.246C283.847,124.829 282.468,124.593 281.159,124.592C280.515,124.592 279.888,124.65 279.322,124.781C278.796,124.901 278.374,125.13 278.063,125.436C277.752,125.742 277.56,126.118 277.454,126.505L277.838,126.61L277.973,126.236C277.5,126.065 276.925,125.928 276.22,125.832C275.729,125.765 275.272,125.734 274.846,125.734C274.128,125.734 273.498,125.822 272.948,125.973L273.053,126.356L273.446,126.301C273.396,125.922 273.152,125.578 272.778,125.328C272.402,125.073 271.89,124.877 271.188,124.721C270.656,124.604 270.164,124.55 269.709,124.55C268.128,124.545 267.006,125.216 266.283,126.026L266.578,126.292L266.855,126.007C266.532,125.696 266.054,125.481 265.361,125.331C265.035,125.261 264.733,125.227 264.454,125.227C263.486,125.218 262.789,125.663 262.406,126.242L262.734,126.465L263.057,126.234C262.506,125.481 261.377,124.962 259.238,124.759C258.898,124.728 258.583,124.712 258.29,124.712C257.101,124.713 256.271,124.962 255.712,125.408L255.96,125.718L256.118,125.354C255.384,125.037 254.355,124.831 252.886,124.771C252.665,124.762 252.45,124.757 252.24,124.757C250.109,124.756 248.555,125.209 247.43,125.854L247.628,126.199L247.813,125.847C246.366,125.087 245.148,124.773 244.116,124.772C243.165,124.771 242.38,125.045 241.765,125.457L241.985,125.788L242.322,125.578C242.145,125.293 241.845,125.094 241.461,124.969C241.074,124.842 240.587,124.777 239.96,124.77L239.885,124.77C238.04,124.761 236.883,125.461 236.263,126.368C235.642,127.269 235.529,128.305 235.527,129.003C235.527,129.494 235.586,129.825 235.589,129.842L235.98,129.771L236.258,129.487C236.247,129.477 235.926,129.162 235.45,128.84C234.972,128.522 234.346,128.177 233.651,128.17C233.199,128.164 232.709,128.352 232.36,128.784C232.008,129.213 231.776,129.838 231.659,130.733C231.624,130.998 231.607,131.247 231.607,131.48C231.601,132.547 231.976,133.309 232.539,133.76L232.79,133.452L232.443,133.257C232.124,133.829 231.885,134.638 231.737,135.798C231.682,136.24 231.655,136.651 231.655,137.033C231.651,138.782 232.218,139.946 232.969,140.664L233.245,140.378L232.909,140.166C232.312,141.118 232.038,141.906 232.036,142.594C232.035,142.973 232.125,143.318 232.287,143.61L232.635,143.419L232.379,143.114C231.949,143.475 231.732,144.069 231.735,144.855C231.735,145.336 231.811,145.901 231.973,146.577C232.157,147.345 232.196,147.792 232.196,148.056C232.196,148.297 232.167,148.364 232.161,148.547L232.211,148.792C232.272,148.926 232.361,149.003 232.437,149.064C232.517,149.126 232.605,149.185 232.726,149.266C232.903,149.386 233.144,149.343 233.269,149.171C233.395,148.998 233.361,148.756 233.193,148.624C232.939,148.428 232.598,148.286 232.208,148.283C231.898,148.28 231.551,148.389 231.277,148.652C231.002,148.914 230.81,149.301 230.713,149.818C230.583,150.508 230.526,151.111 230.526,151.639C230.521,153.224 231.057,154.157 231.643,154.647C232.225,155.137 232.797,155.186 232.845,155.191L232.876,154.795L232.767,154.412C232.738,154.422 232.252,154.559 231.744,154.957C231.238,155.347 230.702,156.046 230.706,157.073C230.704,157.498 230.844,157.871 231.07,158.145C231.412,158.559 231.893,158.757 232.344,158.87C232.797,158.98 233.236,159.002 233.538,159.002C233.766,159.002 233.915,158.989 233.924,158.988L233.888,158.592L233.64,158.282C233.196,158.644 233.038,159.202 233.036,159.746C233.037,160.211 233.152,160.689 233.37,161.111C233.588,161.53 233.916,161.902 234.369,162.098L234.525,161.733L234.131,161.686C234.101,161.939 234.083,162.192 234.083,162.437C234.083,162.825 234.125,163.195 234.26,163.528C234.389,163.857 234.649,164.164 235.03,164.287C235.239,164.357 235.449,164.389 235.652,164.388C236.284,164.386 236.815,164.092 237.226,163.767C237.638,163.44 237.942,163.067 238.115,162.834L237.796,162.597L237.433,162.434C237.367,162.58 237.319,162.772 237.319,163.004C237.324,163.658 237.674,164.571 238.911,165.948C239.724,166.859 240.611,167.209 241.4,167.205C241.952,167.204 242.443,167.044 242.843,166.846L242.667,166.49L242.417,166.181C242.023,166.499 241.597,166.878 241.254,167.277C240.918,167.681 240.633,168.092 240.621,168.596C240.619,168.797 240.683,169.013 240.815,169.187C241.015,169.452 241.321,169.613 241.713,169.72C242.109,169.825 242.61,169.878 243.258,169.878C244.317,169.878 245.13,169.789 245.764,169.64L245.674,169.254L245.288,169.347C245.375,169.708 245.637,170.021 246.033,170.264C246.431,170.511 246.976,170.713 247.73,170.882C248.122,170.969 248.501,171.009 248.866,171.009C250.478,171.009 251.77,170.218 252.725,169.283L252.447,168.999L252.451,169.396C253.47,169.384 254.49,168.951 255.405,168.41L255.202,168.068L254.873,167.845C254.623,168.215 254.441,168.628 254.439,169.08C254.435,169.55 254.66,170.026 255.096,170.403C255.531,170.786 256.167,171.105 257.07,171.381C257.747,171.586 258.346,171.682 258.884,171.682C259.896,171.686 260.683,171.326 261.221,170.774C261.764,170.224 262.066,169.514 262.24,168.812L261.854,168.716L261.616,169.034C262.127,169.417 262.874,169.701 263.96,169.874C264.348,169.934 264.706,169.963 265.037,169.963C266.13,169.966 266.947,169.641 267.512,169.152L267.253,168.851L266.873,168.967C267.107,169.734 267.624,170.58 268.553,171.499C269.306,172.248 270.128,172.591 270.921,172.588C272.25,172.579 273.379,171.697 274.213,170.667L273.903,170.418L273.633,170.709C273.864,170.923 274.147,171.116 274.488,171.277C274.987,171.513 275.525,171.614 276.065,171.614C278.022,171.601 280.036,170.357 281.221,169.121L280.932,168.847L280.618,169.09C280.785,169.306 280.981,169.529 281.212,169.761C281.546,170.092 282.038,170.39 282.641,170.684C284.448,171.557 287.22,172.335 289.024,172.342C289.449,172.341 289.824,172.3 290.147,172.182L290.01,171.809L289.701,172.059C290.25,172.728 291.289,173.131 292.992,173.133C293.204,173.133 293.427,173.127 293.66,173.114C296.588,172.95 298.365,172.005 299.251,170.952L298.947,170.697L298.696,171.005C299.337,171.528 300.143,172.088 301.022,172.648C301.525,172.969 302.051,173.116 302.555,173.115C303.212,173.115 303.819,172.873 304.334,172.516C304.851,172.157 305.283,171.681 305.609,171.174L305.274,170.96L305.142,171.334C305.311,171.393 305.491,171.452 305.69,171.505C306.145,171.627 306.597,171.682 307.036,171.682C308.136,171.681 309.154,171.341 309.983,170.863L309.784,170.519L309.61,170.876C309.884,171.009 310.19,171.115 310.527,171.183C311.349,171.347 312.219,171.518 313.084,171.518C313.767,171.518 314.453,171.41 315.093,171.091C315.734,170.773 316.314,170.245 316.785,169.463L316.445,169.257L316.444,169.655L316.567,169.655C317.585,169.655 318.873,169.585 320.521,169.416C321.493,169.316 322.287,169.212 322.936,169.102L322.87,168.711L322.686,169.063C323.457,169.464 324.584,169.776 326.27,169.923C326.794,169.968 327.262,169.99 327.68,169.99C328.823,169.987 329.604,169.835 330.152,169.516C330.424,169.357 330.635,169.147 330.769,168.903C330.903,168.659 330.957,168.392 330.957,168.132C330.957,167.882 330.91,167.635 330.838,167.391L330.457,167.505L330.464,167.902L330.617,167.899L330.622,167.899C332.89,167.826 334.305,167.508 335.206,167.035C335.656,166.798 335.978,166.516 336.186,166.199C336.395,165.883 336.479,165.54 336.477,165.225C336.477,165.098 336.465,164.976 336.443,164.86L336.053,164.931L336.084,165.327C337.708,165.198 338.769,164.707 339.415,164.017C340.062,163.327 340.252,162.479 340.25,161.751C340.25,161.647 340.247,161.545 340.24,161.447L339.844,161.473L339.874,161.869C340.916,161.799 341.651,161.267 342.035,160.546C342.424,159.83 342.526,158.966 342.527,158.109C342.527,157.295 342.43,156.481 342.349,155.806L341.955,155.853L341.56,155.9C341.641,156.573 341.733,157.358 341.733,158.109C341.735,158.9 341.625,159.647 341.338,160.164C341.044,160.677 340.636,161.002 339.813,161.077C339.596,161.094 339.433,161.283 339.447,161.499L339.456,161.751C339.454,162.353 339.307,162.969 338.835,163.474C338.363,163.978 337.523,164.413 336.021,164.535C335.909,164.544 335.806,164.6 335.737,164.689C335.669,164.778 335.641,164.892 335.662,165.003L335.683,165.225C335.682,165.408 335.641,165.58 335.522,165.763C335.345,166.034 334.96,166.348 334.18,166.605C333.404,166.861 332.248,167.053 330.597,167.104L330.609,167.502L330.602,167.104L330.449,167.107C330.326,167.109 330.209,167.17 330.136,167.27C330.063,167.37 330.041,167.499 330.076,167.618C330.133,167.808 330.162,167.984 330.162,168.132C330.162,168.288 330.132,168.411 330.073,168.519C329.984,168.678 329.813,168.839 329.433,168.975C329.055,169.108 328.482,169.196 327.68,169.195C327.289,169.195 326.843,169.175 326.339,169.131C324.72,168.991 323.688,168.69 323.054,168.358L322.804,168.319C322.178,168.424 321.399,168.527 320.44,168.626C318.812,168.792 317.549,168.86 316.567,168.86L316.446,168.86C316.307,168.86 316.177,168.933 316.105,169.052C315.697,169.726 315.239,170.129 314.739,170.38C314.239,170.628 313.685,170.723 313.084,170.724C312.325,170.724 311.501,170.568 310.683,170.404C310.412,170.349 310.171,170.265 309.958,170.162C309.839,170.104 309.699,170.109 309.585,170.175C308.859,170.595 307.969,170.888 307.036,170.887C306.662,170.887 306.281,170.841 305.897,170.738C305.72,170.69 305.56,170.639 305.406,170.585C305.233,170.524 305.039,170.59 304.94,170.745C304.666,171.172 304.296,171.576 303.882,171.862C303.466,172.15 303.013,172.32 302.555,172.32C302.201,172.319 301.837,172.223 301.448,171.978C300.587,171.429 299.802,170.882 299.198,170.389C299.03,170.252 298.782,170.275 298.643,170.441C297.951,171.27 296.394,172.167 293.616,172.321C293.396,172.333 293.188,172.339 292.992,172.339C291.403,172.341 290.621,171.944 290.318,171.559C290.211,171.427 290.032,171.377 289.872,171.436C289.692,171.505 289.392,171.548 289.024,171.547C287.969,171.549 286.377,171.216 284.945,170.745C284.228,170.51 283.547,170.242 282.988,169.97C282.429,169.7 281.989,169.417 281.775,169.2C281.565,168.989 281.391,168.791 281.247,168.604C281.176,168.512 281.069,168.456 280.953,168.45C280.836,168.444 280.724,168.489 280.644,168.574C279.601,169.686 277.668,170.832 276.065,170.819C275.622,170.819 275.206,170.738 274.827,170.558C274.554,170.43 274.343,170.283 274.173,170.126C274.092,170.051 273.985,170.013 273.874,170.021C273.764,170.029 273.663,170.082 273.594,170.168C272.841,171.108 271.862,171.802 270.921,171.793C270.354,171.791 269.758,171.569 269.112,170.934C268.25,170.081 267.818,169.343 267.633,168.735C267.594,168.607 267.492,168.507 267.363,168.469C267.234,168.432 267.095,168.462 266.993,168.55C266.578,168.905 265.982,169.166 265.037,169.168C264.751,169.168 264.435,169.144 264.084,169.089C263.076,168.931 262.45,168.669 262.092,168.399C261.986,168.319 261.846,168.297 261.721,168.342C261.596,168.387 261.5,168.492 261.469,168.621C261.316,169.237 261.058,169.811 260.657,170.216C260.254,170.619 259.719,170.883 258.884,170.887C258.441,170.887 257.918,170.808 257.301,170.62C256.463,170.367 255.925,170.077 255.621,169.807C255.317,169.532 255.238,169.313 255.234,169.08C255.232,168.854 255.333,168.582 255.531,168.291C255.635,168.137 255.619,167.931 255.491,167.796C255.364,167.66 255.159,167.631 254.999,167.726C254.152,168.232 253.233,168.598 252.444,168.601C252.34,168.602 252.243,168.642 252.169,168.714C251.3,169.562 250.206,170.215 248.866,170.215C248.56,170.214 248.239,170.181 247.902,170.106C247.203,169.951 246.734,169.766 246.452,169.59C246.168,169.41 246.086,169.265 246.06,169.16C246.008,168.948 245.795,168.817 245.583,168.867C245.028,168.997 244.272,169.084 243.258,169.084C242.454,169.086 241.936,168.988 241.675,168.868C241.544,168.809 241.481,168.751 241.453,168.713L241.416,168.596C241.404,168.463 241.561,168.13 241.858,167.794C242.148,167.454 242.546,167.098 242.917,166.799C243.074,166.671 243.111,166.446 243.001,166.275C242.892,166.105 242.672,166.044 242.49,166.134C242.168,166.294 241.795,166.41 241.4,166.41C240.839,166.406 240.207,166.193 239.501,165.416C238.325,164.113 238.109,163.342 238.114,163.004C238.114,162.881 238.137,162.807 238.158,162.76C238.241,162.575 238.171,162.357 237.997,162.254C237.822,162.152 237.597,162.198 237.476,162.361C237.33,162.559 237.062,162.884 236.732,163.145C236.4,163.409 236.02,163.596 235.652,163.594C235.531,163.594 235.409,163.576 235.281,163.533C235.154,163.487 235.076,163.414 234.995,163.227C234.919,163.044 234.876,162.762 234.877,162.437C234.877,162.231 234.893,162.008 234.92,161.78C234.94,161.604 234.844,161.437 234.682,161.368C234.45,161.27 234.231,161.047 234.075,160.744C233.919,160.445 233.83,160.076 233.831,159.746C233.83,159.35 233.957,159.04 234.137,158.903C234.273,158.793 234.322,158.607 234.257,158.444C234.192,158.282 234.027,158.181 233.853,158.197L233.773,158.202C233.718,158.204 233.637,158.207 233.538,158.207C233.191,158.209 232.62,158.166 232.19,157.988C231.974,157.9 231.8,157.783 231.686,157.643C231.573,157.501 231.503,157.337 231.501,157.073C231.505,156.327 231.855,155.887 232.235,155.581C232.424,155.433 232.619,155.328 232.763,155.263L232.933,155.194L232.977,155.179L232.985,155.177C233.169,155.124 233.29,154.946 233.271,154.755C233.252,154.564 233.098,154.413 232.906,154.398L232.904,154.398C232.848,154.391 232.451,154.326 232.082,153.974C231.714,153.62 231.325,152.97 231.321,151.639C231.321,151.168 231.372,150.614 231.494,149.965C231.57,149.56 231.703,149.342 231.824,149.229C231.946,149.116 232.064,149.08 232.208,149.077C232.384,149.074 232.59,149.158 232.703,149.25L232.948,148.937L233.17,148.608C233.01,148.501 232.916,148.432 232.907,148.421L232.858,148.472L232.914,148.43L232.907,148.421L232.858,148.472L232.914,148.43L232.743,148.559L232.948,148.497L232.914,148.43L232.743,148.559L232.948,148.497L232.783,148.547L232.956,148.547L232.948,148.497L232.783,148.547L232.956,148.547C232.951,148.546 232.99,148.35 232.99,148.056C232.99,147.712 232.94,147.202 232.746,146.391C232.594,145.759 232.529,145.251 232.529,144.855C232.532,144.194 232.699,143.883 232.89,143.723C233.035,143.601 233.074,143.392 232.982,143.227C232.887,143.053 232.831,142.853 232.831,142.594C232.829,142.129 233.029,141.465 233.581,140.589C233.681,140.429 233.656,140.222 233.52,140.091C232.936,139.524 232.454,138.62 232.45,137.033C232.45,136.687 232.474,136.31 232.526,135.898C232.664,134.8 232.891,134.08 233.136,133.646C233.231,133.478 233.19,133.265 233.04,133.143C232.68,132.844 232.408,132.381 232.402,131.48C232.402,131.285 232.416,131.07 232.447,130.835C232.55,130.027 232.759,129.544 232.972,129.291C233.187,129.039 233.386,128.971 233.651,128.965C234.054,128.958 234.593,129.215 235.005,129.498C235.212,129.638 235.389,129.78 235.513,129.886L235.656,130.012L235.703,130.055C235.826,130.176 236.014,130.203 236.166,130.122C236.319,130.041 236.402,129.87 236.371,129.701L236.365,129.659C236.351,129.565 236.322,129.323 236.322,129.003C236.32,128.392 236.434,127.51 236.916,126.821C237.4,126.136 238.224,125.573 239.885,125.564L239.952,125.565C240.526,125.57 240.942,125.634 241.212,125.724C241.486,125.814 241.6,125.92 241.648,125.998C241.705,126.089 241.796,126.153 241.901,126.176C242.007,126.199 242.116,126.178 242.206,126.118C242.702,125.788 243.315,125.568 244.116,125.567C244.983,125.567 246.078,125.833 247.443,126.551C247.563,126.614 247.708,126.611 247.825,126.544C248.815,125.977 250.219,125.552 252.24,125.552C252.438,125.552 252.643,125.556 252.854,125.565C254.262,125.621 255.207,125.824 255.802,126.083C255.936,126.141 256.092,126.12 256.208,126.029C256.569,125.738 257.207,125.507 258.29,125.507C258.556,125.507 258.846,125.521 259.164,125.55C261.215,125.736 262.109,126.256 262.411,126.697C262.487,126.802 262.608,126.864 262.739,126.863C262.869,126.861 262.989,126.797 263.062,126.689C263.338,126.301 263.709,126.031 264.454,126.022C264.669,126.022 264.915,126.048 265.195,126.108C265.805,126.237 266.147,126.423 266.3,126.576C266.378,126.651 266.483,126.692 266.591,126.689C266.698,126.685 266.801,126.638 266.873,126.558C267.487,125.884 268.352,125.349 269.709,125.344C270.101,125.344 270.536,125.391 271.017,125.497C271.658,125.638 272.085,125.815 272.331,125.984C272.579,126.158 272.639,126.289 272.659,126.411C272.675,126.524 272.739,126.625 272.834,126.688C272.929,126.75 273.048,126.769 273.157,126.739C273.635,126.609 274.192,126.529 274.846,126.529C275.233,126.529 275.655,126.557 276.113,126.62C276.775,126.71 277.296,126.836 277.702,126.984C277.806,127.021 277.922,127.014 278.021,126.963C278.119,126.912 278.192,126.821 278.221,126.715C278.298,126.433 278.425,126.196 278.621,126.002C278.818,125.809 279.092,125.65 279.502,125.555C279.99,125.441 280.563,125.386 281.159,125.386C282.369,125.385 283.681,125.615 284.62,125.986L284.884,125.995C285.693,125.743 286.613,125.564 287.59,125.564C289.026,125.566 290.583,125.944 292.142,127.056C292.231,127.119 292.312,127.182 292.407,127.252C292.562,127.367 292.777,127.353 292.917,127.22C293.701,126.474 294.82,125.809 296.483,125.561C296.834,125.508 297.136,125.485 297.393,125.485C297.82,125.485 298.117,125.55 298.309,125.638C298.501,125.728 298.593,125.828 298.657,125.948C298.707,126.045 298.796,126.118 298.901,126.148C299.006,126.178 299.119,126.164 299.213,126.108C299.773,125.774 300.72,125.513 302.246,125.514C302.623,125.514 303.035,125.53 303.485,125.564C304.471,125.637 305.165,125.797 305.613,125.993C306.065,126.193 306.251,126.406 306.328,126.601C306.391,126.761 306.55,126.862 306.721,126.852C306.843,126.845 306.968,126.841 307.099,126.841C307.312,126.841 307.538,126.851 307.781,126.875C308.324,126.927 308.775,127.003 309.156,127.096C309.279,127.125 309.408,127.095 309.505,127.014C309.601,126.933 309.654,126.812 309.646,126.686L309.641,126.499C309.641,126.069 309.726,125.611 309.953,125.112C310.113,124.765 310.357,124.528 310.681,124.361C311.005,124.195 311.413,124.11 311.863,124.11C313.185,124.1 314.809,124.874 315.498,125.976C315.615,126.159 315.856,126.214 316.041,126.101C316.565,125.778 317.238,125.503 317.993,125.504C318.727,125.506 319.556,125.753 320.478,126.529C320.882,126.872 321.131,127.189 321.275,127.47C321.357,127.63 321.537,127.715 321.713,127.677C322.08,127.598 322.507,127.551 323.005,127.551C323.373,127.551 323.78,127.577 324.23,127.633C325.021,127.732 325.622,127.862 326.075,128.005C326.282,128.071 326.503,127.958 326.572,127.753C326.655,127.505 326.775,127.307 326.941,127.161C327.108,127.017 327.327,126.911 327.668,126.874C327.903,126.85 328.136,126.838 328.364,126.838C329.011,126.838 329.608,126.936 330.057,127.111C330.51,127.286 330.789,127.529 330.891,127.772C330.941,127.887 331.042,127.972 331.165,128.001C331.287,128.03 331.415,127.999 331.511,127.918C331.939,127.561 332.502,127.297 333.258,127.296C333.692,127.296 334.193,127.385 334.77,127.609C335.378,127.845 335.766,128.094 335.983,128.315C336.2,128.54 336.255,128.712 336.258,128.89C336.263,129.135 336.106,129.459 335.813,129.788C335.716,129.898 335.687,130.052 335.739,130.189C335.79,130.327 335.913,130.425 336.058,130.444C336.578,130.512 337.285,130.863 338.169,131.814C338.85,132.55 339.065,133.145 339.066,133.627L339.063,133.724C339.057,133.832 339.094,133.937 339.166,134.016C339.239,134.096 339.339,134.142 339.447,134.146C339.97,134.161 340.513,134.229 340.875,134.367C341.057,134.435 341.187,134.518 341.257,134.594C341.326,134.672 341.35,134.726 341.353,134.836C341.357,135.019 341.26,135.363 341.074,135.752C340.522,136.936 339.27,138.561 338.604,139.378C338.469,139.543 338.49,139.787 338.65,139.928C338.811,140.068 339.055,140.056 339.201,139.901C339.371,139.719 339.581,139.526 339.789,139.387C339.996,139.247 340.197,139.173 340.332,139.176C340.424,139.178 340.492,139.196 340.583,139.264C340.718,139.365 340.904,139.622 341.052,140.137C341.201,140.648 341.314,141.401 341.354,142.447C341.359,142.581 341.361,142.709 341.361,142.832C341.361,143.403 341.306,143.852 341.217,144.197C341.19,144.299 341.206,144.41 341.261,144.501C341.434,144.79 341.557,145.217 341.557,145.85C341.557,146.277 341.501,146.795 341.371,147.415C341.248,148.001 341.094,148.451 340.928,148.784C340.761,149.117 340.583,149.33 340.413,149.462C340.261,149.579 340.215,149.788 340.303,149.958C340.508,150.357 340.632,150.811 340.632,151.349C340.632,151.927 340.487,152.608 340.123,153.409C340.04,153.593 339.958,153.761 339.877,153.92C339.825,154.021 339.819,154.139 339.86,154.245C339.901,154.351 339.985,154.434 340.091,154.473C340.508,154.629 340.868,154.829 341.119,155.065C341.37,155.304 341.518,155.563 341.56,155.9L341.955,155.853Z" style="fill:rgb(178,192,203);fill-rule:nonzero;"/>
                    <path d="M339.041,142.222C338.445,140.037 336.061,140.732 336.061,140.732C336.061,140.732 340.829,137.057 337.75,133.977C334.671,130.898 330.697,133.679 330.697,133.679C330.697,133.679 333.18,126.826 325.73,129.607C324.792,129.958 324.065,130.297 323.511,130.623C323.037,129.917 322.278,129.307 321.062,129.01C316.989,128.017 317.188,131.296 317.188,131.296C317.188,131.296 316.592,124.64 309.141,128.315C309.043,128.364 308.958,128.411 308.864,128.459C308.008,127.882 306.716,127.494 304.771,127.521C304.107,127.53 303.554,127.585 303.094,127.674C302.628,127.333 301.902,127.065 300.798,126.924C297.319,126.482 296.421,128.091 296.225,129.32C296.053,128.547 295.489,127.68 293.845,127.521C292.387,127.38 291.913,128.13 291.813,128.959C291.382,128.075 290.375,127.153 288.083,126.826C285.801,126.5 285.164,127.202 285.124,128.038C284.595,127.434 283.666,126.91 282.023,126.826C279.484,126.695 278.859,127.854 278.759,128.789C278.461,127.557 277.308,125.818 273.053,126.356C265.313,127.335 262.852,129.408 266.429,132.189C266.429,132.189 260.812,138.149 264.812,138.944C266.752,139.33 268.306,138.686 269.399,137.922C267.097,140.381 263.893,144.703 268.214,146.096C271.224,147.067 272.948,146.422 273.93,145.512C273.227,147.211 272.888,149.496 275.17,150.864C275.501,151.063 275.809,151.194 276.108,151.297C275.204,152.815 275.163,154.988 277.554,158.016C277.768,158.288 277.969,158.526 278.161,158.747C278.252,161.182 280.116,163.76 286.527,165.169C287.265,165.331 287.911,165.452 288.504,165.55C289.459,167.034 290.871,168.21 292.958,168.347C296.285,168.565 297.657,167.343 298.223,166.198C298.341,166.973 299.048,167.54 301.393,166.757C303.058,166.203 303.558,165.551 303.508,164.938C304.999,165.974 307.375,166.955 310.93,166.757C312.444,166.673 313.312,166.32 313.748,165.819C315.311,166.403 317.678,166.49 321.261,165.566C325.167,164.557 327.151,163.43 328.045,162.359C329.036,163.047 330.726,163.276 333.578,162.387C341.923,159.785 333.578,154.44 333.578,154.44C333.578,154.44 337.419,155.632 337.287,152.056C337.258,151.289 336.971,150.639 336.552,150.083C338.206,149.191 339.355,147.698 337.29,145.301C337.29,145.301 339.638,144.408 339.041,142.222Z" style="fill:white;fill-rule:nonzero;"/>
                    <path d="M257.686,157.619C260.359,164.152 264.814,160.885 264.814,160.885C264.814,160.885 264.567,163.272 261.299,163.569C258.032,163.866 257.686,157.619 257.686,157.619Z" style="fill:white;fill-rule:nonzero;"/>
                    <path d="M257.686,134.905C254.111,136.758 256.428,141.13 259.012,141.13C259.012,141.13 254.442,142.587 253.846,139.474C253.25,136.361 257.686,134.905 257.686,134.905Z" style="fill:white;fill-rule:nonzero;"/>
                    <path d="M243.714,132.719C240.668,131.858 238.349,137.232 240.403,138.187C240.403,138.187 237.953,137.83 238.218,135.407C238.482,132.984 241.727,131.66 241.727,131.66C241.727,131.66 241.926,129.143 244.84,129.607C247.754,130.07 246.032,131.991 246.032,131.991C246.032,131.991 245.966,130.798 244.376,131.196C242.787,131.593 243.714,132.719 243.714,132.719Z" style="fill:white;fill-rule:nonzero;"/>
                    <path d="M245.13,152.059C244.433,152.854 244.533,156.331 249.302,156.231C249.302,156.231 248.606,160.105 253.076,160.403C253.076,160.403 248.904,162.489 247.414,157.324C247.414,157.324 244.93,157.026 243.738,155.238C242.547,153.45 245.13,152.059 245.13,152.059Z" style="fill:white;fill-rule:nonzero;"/>
                    <path d="M235.535,151.461C234.244,156.439 238.813,155.135 238.813,155.135C238.813,155.135 235.535,157.619 234.939,155.731C234.344,153.844 235.535,151.461 235.535,151.461Z" style="fill:rgb(178,192,203);fill-rule:nonzero;"/>
                    <path d="M247.555,165.963C248.846,168.248 250.733,167.751 250.733,167.751C250.733,167.751 253.018,167.353 253.316,165.963C251.442,166.559 249.429,166.559 247.555,165.963Z" style="fill:rgb(178,192,203);fill-rule:nonzero;"/>
                    <path d="M245.908,142.918C244.972,145.401 247.555,145.897 247.555,145.897L246.62,146.231C245.542,146.615 244.555,145.474 245.09,144.464L245.908,142.918Z" style="fill:rgb(178,192,203);fill-rule:nonzero;"/>
                    <path d="M285.501,157.123C288.381,160.102 292.354,158.042 293.249,156.439L292.117,158.119C290.769,160.118 287.858,160.206 286.393,158.291L285.501,157.123Z" style="fill:rgb(227,230,236);fill-rule:nonzero;"/>
                    <path d="M282.023,145.501C284.071,146.815 287.685,143.911 287.685,143.911C283.382,145.501 281.428,143.315 283.116,140.235C283.116,140.235 279.342,143.778 282.023,145.501Z" style="fill:rgb(227,230,236);fill-rule:nonzero;"/>
                    <path d="M291.924,132.057C292.074,133.777 289.937,135.15 288.778,134.001C288.257,133.484 288.56,133.186 289.052,133.014C289.923,132.712 290.75,132.31 291.538,131.829C291.739,131.706 291.894,131.723 291.924,132.057Z" style="fill:rgb(227,230,236);fill-rule:nonzero;"/>
                    <path d="M308.281,160.997C306.179,161.102 304.838,159.605 303.844,160.997C302.85,162.387 306.162,163.314 307.486,162.718C308.81,162.122 310.009,160.909 308.281,160.997Z" style="fill:rgb(227,230,236);fill-rule:nonzero;"/>
                    <path d="M299.055,154.296C299.784,153.865 299.85,153.633 300.082,154.097C300.314,154.56 298.956,155.365 298.857,154.896C298.758,154.428 299.055,154.296 299.055,154.296Z" style="fill:rgb(227,230,236);fill-rule:nonzero;"/>
                    <path d="M280.732,151.857C281.18,152.418 282.388,154.586 281.394,153.95C280.401,153.314 279.871,153.728 279.871,152.959C279.871,152.189 280.153,151.132 280.732,151.857Z" style="fill:rgb(227,230,236);fill-rule:nonzero;"/>
                    <path d="M274.296,136.854C273.823,136.972 273.124,138.303 273.935,138.593C274.747,138.882 275.333,140.1 275.288,139.018C275.243,137.936 274.792,137.981 274.657,137.53C274.521,137.08 274.838,136.718 274.296,136.854Z" style="fill:rgb(227,230,236);fill-rule:nonzero;"/>
                    <path d="M259.729,131.814C260.26,133.185 259.167,132.476 258.422,132.741C257.677,133.006 258.603,128.9 259.729,131.814Z" style="fill:rgb(178,192,203);fill-rule:nonzero;"/>
                    <path d="M268.957,154.038C269.843,154.484 270.001,154.939 269.256,155.137C268.511,155.335 268.063,155.283 268.013,154.539C267.964,153.795 268.394,153.754 268.957,154.038Z" style="fill:rgb(178,192,203);fill-rule:nonzero;"/>
                    <path d="M359.803,166.547C359.52,166.016 359.074,165.694 358.594,165.515C358.772,165.207 358.893,164.872 358.927,164.572C358.985,164.047 358.729,163.633 358.456,163.349C358.745,163.17 358.951,162.858 358.925,162.321C358.9,161.832 358.693,161.503 358.417,161.276L358.544,161.195C359.646,160.407 358.088,159.869 357.262,159.217C358.605,158.841 357.103,157.111 356.358,156.439C356.215,156.31 356.017,156.272 355.804,156.297C355.55,155.59 354.994,154.85 354.174,154.44C353.674,154.191 353.171,154.172 352.7,154.288C352.522,154.137 352.271,153.988 351.922,153.842C350.774,153.364 350.046,153.389 349.577,153.614C349.419,153.46 349.089,153.345 348.478,153.314C347.807,153.28 347.187,153.428 346.662,153.66C346.445,153.035 345.757,152.6 344.44,153.049C343.247,153.457 342.714,154.028 342.493,154.562C341.916,154.749 341.084,155.224 340.995,156.439C340.995,156.439 340.002,155.855 338.743,156.439C338.105,156.736 338.089,157.373 338.275,158.003C338.127,158.06 337.953,158.17 337.75,158.347C337.353,158.695 337.199,159.03 337.19,159.337C337.078,159.332 336.956,159.333 336.823,159.34C335.923,159.397 335.612,160.22 335.66,161.096C335.326,161.207 335.003,161.467 334.74,161.963C334.29,162.81 334.383,163.551 334.698,164.122C333.892,164.217 333.206,164.718 333.38,165.963C333.565,167.293 334.256,167.563 334.939,167.479C334.877,167.58 334.816,167.686 334.77,167.817C334.54,168.464 335.364,168.944 336.138,169.115C336.055,169.347 335.993,169.607 335.962,169.87C335.899,170.402 336.458,170.738 337.062,170.801C336.942,171.062 336.851,171.317 336.823,171.526C336.739,172.161 338.165,172.494 339.053,172.361C339.071,172.494 339.098,172.624 339.138,172.737C339.231,173.001 339.549,173.165 339.899,173.238C339.655,173.759 339.775,174.474 340.995,174.903C341.406,175.047 341.805,175.051 342.18,174.969C342.232,175.756 342.638,176.502 343.643,176.981C345.045,177.65 346.086,176.994 346.68,176.088C347.284,176.672 348.143,177.09 349.008,176.956C350.012,176.799 350.616,176.284 350.879,175.731C351.348,175.989 352.017,176.095 352.915,175.83C353.81,175.566 354.284,175.132 354.485,174.684C355.346,174.911 356.406,174.752 357.02,173.645C357.423,172.921 357.425,172.278 357.231,171.77L357.324,171.753C358.442,171.483 359.57,170.756 359.537,169.605C359.525,169.186 359.418,168.872 359.257,168.639C359.872,168.14 360.255,167.4 359.803,166.547Z" style="fill:rgb(227,230,236);fill-rule:nonzero;"/>
                    <path d="M359.803,166.547L360.153,166.361C359.821,165.732 359.282,165.345 358.732,165.143L358.594,165.515L358.937,165.714C359.139,165.365 359.279,164.988 359.321,164.616L359.332,164.421C359.331,163.825 359.029,163.371 358.742,163.074L358.456,163.349L358.666,163.687C359.043,163.465 359.335,163.003 359.324,162.412L359.322,162.303C359.297,161.707 359.019,161.248 358.669,160.969L358.417,161.276L358.631,161.611L358.758,161.53L358.775,161.518C358.936,161.402 359.066,161.282 359.164,161.139C359.262,160.998 359.323,160.826 359.322,160.654C359.32,160.385 359.19,160.174 359.049,160.016C358.833,159.776 358.555,159.596 358.275,159.416C357.995,159.238 357.711,159.067 357.507,158.905L357.262,159.217L357.369,159.6C357.616,159.531 357.83,159.413 357.982,159.231C358.135,159.05 358.2,158.819 358.198,158.61C358.186,158.095 357.908,157.644 357.597,157.212C357.281,156.785 356.908,156.4 356.624,156.144C356.419,155.959 356.157,155.891 355.922,155.892L355.754,155.902L355.804,156.297L356.177,156.162C355.891,155.369 355.28,154.552 354.351,154.085C353.986,153.902 353.609,153.821 353.246,153.822C353.026,153.822 352.811,153.851 352.604,153.902L352.7,154.288L352.957,153.984C352.737,153.799 352.451,153.632 352.074,153.475C351.381,153.187 350.811,153.062 350.328,153.061C349.972,153.061 349.662,153.132 349.405,153.256L349.577,153.614L349.854,153.329C349.558,153.055 349.147,152.957 348.499,152.917L348.286,152.912C347.626,152.912 347.02,153.068 346.502,153.296L346.662,153.66L347.037,153.53C346.937,153.238 346.749,152.964 346.47,152.769C346.192,152.574 345.832,152.466 345.42,152.467C345.089,152.467 344.721,152.533 344.311,152.673C343.049,153.1 342.394,153.752 342.126,154.41L342.493,154.562L342.371,154.184C342.042,154.291 341.631,154.48 341.279,154.835C340.925,155.188 340.647,155.716 340.599,156.41L340.995,156.439L341.196,156.097C341.159,156.076 340.658,155.784 339.886,155.782C339.501,155.782 339.05,155.858 338.575,156.079C338.301,156.205 338.084,156.402 337.954,156.636C337.822,156.869 337.774,157.125 337.774,157.371C337.775,157.625 337.823,157.875 337.894,158.115L338.275,158.003L338.131,157.632C337.922,157.714 337.715,157.85 337.488,158.048C337.036,158.44 336.803,158.887 336.793,159.325L337.19,159.337L337.208,158.94L337.049,158.936L336.798,158.944C336.266,158.971 335.83,159.25 335.59,159.633C335.346,160.014 335.259,160.468 335.258,160.925L335.263,161.119L335.66,161.096L335.535,160.719C335.093,160.863 334.684,161.214 334.389,161.776C334.144,162.236 334.034,162.689 334.034,163.11C334.034,163.56 334.159,163.969 334.35,164.314L334.698,164.122L334.651,163.727C334.233,163.777 333.81,163.923 333.481,164.236C333.15,164.547 332.951,165.021 332.955,165.592C332.955,165.727 332.965,165.869 332.986,166.018C333.076,166.665 333.284,167.139 333.606,167.457C333.928,167.776 334.345,167.893 334.72,167.89C334.811,167.89 334.9,167.884 334.986,167.874L334.939,167.479L334.602,167.269C334.534,167.379 334.455,167.515 334.395,167.685C334.355,167.798 334.333,167.918 334.334,168.036C334.333,168.261 334.412,168.468 334.527,168.634C334.88,169.124 335.479,169.367 336.053,169.503L336.138,169.115L335.764,168.981C335.671,169.242 335.602,169.529 335.567,169.823L335.56,169.95C335.557,170.347 335.79,170.671 336.065,170.86C336.344,171.055 336.678,171.159 337.021,171.197L337.062,170.801L336.701,170.635C336.573,170.917 336.468,171.196 336.429,171.473L336.422,171.579C336.421,171.841 336.556,172.064 336.714,172.209C336.954,172.432 337.26,172.558 337.593,172.651C337.927,172.741 338.289,172.786 338.635,172.787C338.798,172.787 338.958,172.776 339.11,172.754L339.053,172.361L338.659,172.416C338.68,172.567 338.711,172.72 338.764,172.869C338.85,173.113 339.028,173.283 339.214,173.397C339.401,173.512 339.608,173.582 339.818,173.627L339.899,173.238L339.539,173.069C339.454,173.252 339.398,173.46 339.398,173.683C339.396,173.993 339.514,174.326 339.762,174.601C340.009,174.879 340.37,175.104 340.863,175.278C341.144,175.376 341.424,175.421 341.694,175.42C341.891,175.42 342.082,175.397 342.264,175.358L342.18,174.969L341.784,174.995C341.832,175.904 342.354,176.818 343.472,177.34C343.918,177.552 344.349,177.652 344.753,177.652C345.777,177.651 346.546,177.021 347.013,176.306L346.68,176.088L346.404,176.373C346.988,176.937 347.789,177.375 348.677,177.378C348.807,177.378 348.937,177.368 349.068,177.348C350.18,177.178 350.916,176.583 351.238,175.902L350.879,175.731L350.688,176.079C351.026,176.265 351.445,176.381 351.933,176.381C352.267,176.381 352.631,176.328 353.027,176.211C353.996,175.928 354.589,175.426 354.848,174.847L354.485,174.684L354.384,175.068C354.629,175.133 354.888,175.17 355.154,175.17C355.956,175.18 356.845,174.796 357.368,173.838C357.635,173.358 357.754,172.888 357.754,172.455C357.754,172.157 357.698,171.878 357.603,171.629L357.231,171.77L357.305,172.161L357.398,172.143L357.417,172.139C358.016,171.993 358.62,171.732 359.1,171.328C359.578,170.93 359.937,170.354 359.935,169.654L359.934,169.596C359.921,169.114 359.794,168.716 359.583,168.413L359.257,168.639L359.507,168.948C359.99,168.556 360.395,167.993 360.398,167.29C360.398,166.987 360.318,166.67 360.154,166.361L359.803,166.547L359.452,166.734C359.562,166.943 359.602,167.124 359.603,167.29C359.605,167.663 359.379,168.027 359.006,168.331C358.845,168.461 358.812,168.695 358.93,168.866C359.042,169.027 359.129,169.259 359.14,169.616L359.14,169.654C359.138,170.078 358.941,170.418 358.588,170.721C358.236,171.02 357.734,171.246 357.231,171.366L357.324,171.753L357.25,171.362L357.157,171.38C357.041,171.401 356.942,171.473 356.884,171.576C356.827,171.679 356.818,171.801 356.86,171.911C356.922,172.076 356.959,172.256 356.959,172.455C356.959,172.743 356.882,173.074 356.673,173.452C356.272,174.156 355.736,174.366 355.154,174.375C354.963,174.375 354.77,174.348 354.586,174.3C354.398,174.25 354.202,174.344 354.123,174.521C353.979,174.839 353.625,175.204 352.803,175.448C352.47,175.547 352.181,175.586 351.933,175.586C351.569,175.586 351.29,175.503 351.07,175.383C350.974,175.33 350.86,175.319 350.756,175.353C350.653,175.386 350.567,175.462 350.52,175.56C350.316,175.984 349.843,176.42 348.946,176.563L348.677,176.583C348.067,176.587 347.426,176.259 346.957,175.802C346.872,175.72 346.754,175.68 346.637,175.693C346.52,175.705 346.413,175.771 346.348,175.869C345.964,176.448 345.428,176.858 344.753,176.857C344.479,176.857 344.169,176.791 343.815,176.622C342.923,176.185 342.632,175.609 342.577,174.943C342.569,174.828 342.512,174.721 342.42,174.652C342.328,174.583 342.209,174.557 342.097,174.581C341.962,174.61 341.828,174.626 341.694,174.626C341.509,174.625 341.322,174.597 341.127,174.528C340.722,174.386 340.484,174.219 340.356,174.073C340.228,173.927 340.195,173.808 340.193,173.683C340.193,173.594 340.215,173.499 340.259,173.407C340.311,173.296 340.309,173.17 340.255,173.06C340.2,172.951 340.1,172.874 339.98,172.849C339.84,172.82 339.712,172.772 339.631,172.721L339.513,172.605C339.486,172.527 339.462,172.421 339.446,172.306C339.431,172.201 339.376,172.107 339.291,172.043C339.206,171.979 339.1,171.952 338.995,171.968C338.887,171.984 338.764,171.992 338.635,171.992C338.27,171.993 337.851,171.921 337.563,171.806C337.42,171.75 337.311,171.682 337.26,171.632L337.219,171.582L337.216,171.577L337.208,171.579L337.217,171.579L337.216,171.577L337.208,171.579L337.217,171.579L337.214,171.579L337.217,171.579L337.214,171.579L337.217,171.579C337.234,171.438 337.312,171.207 337.423,170.968C337.476,170.852 337.471,170.716 337.408,170.605C337.345,170.494 337.231,170.419 337.104,170.406C336.873,170.383 336.654,170.305 336.524,170.211C336.39,170.11 336.356,170.038 336.354,169.95L336.356,169.916C336.384,169.685 336.44,169.452 336.513,169.248C336.551,169.141 336.541,169.022 336.486,168.922C336.431,168.823 336.335,168.751 336.224,168.727C335.924,168.661 335.61,168.537 335.404,168.393C335.3,168.321 335.224,168.246 335.182,168.185L335.128,168.036L335.145,167.95C335.177,167.857 335.22,167.781 335.277,167.689C335.357,167.56 335.356,167.394 335.275,167.266C335.193,167.138 335.044,167.067 334.893,167.084L334.72,167.096C334.488,167.093 334.318,167.039 334.163,166.889C334.008,166.739 333.849,166.448 333.773,165.908C333.757,165.792 333.75,165.687 333.75,165.592C333.753,165.187 333.868,164.969 334.029,164.811C334.193,164.653 334.443,164.552 334.745,164.516C334.877,164.5 334.991,164.421 335.052,164.303C335.112,164.185 335.11,164.046 335.046,163.929C334.911,163.685 334.829,163.413 334.829,163.11C334.829,162.826 334.9,162.509 335.091,162.149C335.321,161.721 335.559,161.55 335.785,161.474C335.955,161.417 336.067,161.254 336.057,161.074L336.052,160.925C336.051,160.573 336.128,160.261 336.257,160.065C336.391,159.871 336.539,159.763 336.848,159.737L337.049,159.731L337.172,159.733C337.278,159.738 337.383,159.7 337.461,159.628C337.538,159.556 337.584,159.454 337.587,159.348C337.595,159.172 337.671,158.95 338.012,158.646C338.191,158.489 338.331,158.406 338.419,158.373C338.612,158.298 338.715,158.088 338.656,157.89C338.6,157.701 338.569,157.521 338.569,157.371C338.569,157.224 338.597,157.112 338.645,157.027C338.695,156.942 338.764,156.869 338.911,156.799C339.275,156.63 339.604,156.577 339.886,156.577C340.168,156.577 340.403,156.632 340.565,156.686L340.747,156.758L340.788,156.779L340.796,156.783L340.852,156.682L340.793,156.781L340.796,156.783L340.852,156.682L340.793,156.781C340.911,156.851 341.058,156.854 341.179,156.791C341.301,156.727 341.381,156.604 341.391,156.468C341.432,155.947 341.614,155.63 341.843,155.395C342.073,155.162 342.366,155.02 342.615,154.94C342.726,154.904 342.816,154.821 342.86,154.714C343.033,154.304 343.445,153.814 344.569,153.425C344.913,153.307 345.196,153.261 345.42,153.262C345.7,153.262 345.884,153.33 346.015,153.42C346.145,153.512 346.232,153.635 346.286,153.79C346.323,153.894 346.402,153.98 346.503,154.024C346.605,154.068 346.721,154.068 346.822,154.023C347.254,153.833 347.752,153.706 348.286,153.706L348.458,153.711C349.03,153.734 349.28,153.864 349.299,153.898C349.419,154.015 349.599,154.044 349.749,153.972C349.891,153.904 350.074,153.856 350.328,153.856C350.671,153.856 351.143,153.948 351.769,154.209C352.092,154.343 352.308,154.476 352.443,154.591C352.541,154.673 352.672,154.704 352.796,154.673C352.945,154.636 353.096,154.616 353.246,154.616C353.493,154.617 353.74,154.668 353.996,154.796C354.708,155.149 355.209,155.812 355.43,156.431C355.492,156.606 355.668,156.714 355.853,156.691L355.922,156.687C356.021,156.688 356.064,156.71 356.093,156.735C356.338,156.955 356.686,157.316 356.958,157.685C357.237,158.048 357.415,158.444 357.403,158.61L357.371,158.723C357.35,158.748 357.296,158.795 357.154,158.835C357.01,158.875 356.901,158.993 356.872,159.14C356.843,159.286 356.898,159.437 357.016,159.529C357.366,159.804 357.787,160.034 358.101,160.252C358.258,160.36 358.385,160.464 358.456,160.544L358.52,160.634L358.527,160.654L358.508,160.691C358.483,160.728 358.422,160.794 358.313,160.872L358.544,161.195L358.33,160.86L358.203,160.941C358.095,161.01 358.028,161.125 358.02,161.252C358.013,161.38 358.066,161.502 358.165,161.583C358.368,161.757 358.503,161.956 358.528,162.341L358.529,162.412C358.518,162.784 358.413,162.895 358.246,163.012C358.145,163.075 358.076,163.182 358.062,163.3C358.047,163.418 358.087,163.539 358.17,163.625C358.376,163.84 358.539,164.11 358.538,164.421L358.532,164.528C358.508,164.756 358.406,165.049 358.25,165.316C358.191,165.417 358.18,165.54 358.22,165.65C358.259,165.759 358.346,165.847 358.455,165.888C358.866,166.042 359.22,166.3 359.452,166.734L359.803,166.547Z" style="fill:rgb(178,192,203);fill-rule:nonzero;"/>
                    <path d="M349.322,155.534C348.446,156.151 346.122,154.732 345.845,157.057C345.568,159.383 347.73,158.332 347.452,158C347.174,157.667 346.066,156.239 343.574,157.701C341.082,159.162 346.111,162.558 346.676,160.159C347.24,157.76 341.983,159.389 343.609,160.993C343.609,160.993 338.779,162.097 342.45,164.701C346.122,167.303 348.503,162.263 344.681,163.205C340.86,164.147 343.684,169.186 346.676,167.747C349.666,166.306 346.676,164.423 346.454,165.974C346.232,167.525 345.956,169.74 350.441,168.964C354.928,168.19 350.995,165.255 350.441,166.805C349.888,168.356 351.217,169.506 353.93,169.125C356.644,168.744 354.852,164.036 354.862,165.808C354.872,167.581 357.198,167.415 357.254,165.919C357.309,164.423 357.364,161.71 355.703,163.15C354.042,164.589 358.085,164.147 357.641,162.541C357.198,160.934 355.759,159.538 355.094,160.707C354.43,161.876 357.918,161.324 356.976,159.662C356.035,158 353.321,158.664 353.709,159.383C354.096,160.104 356.81,159.162 355.426,157.279C354.042,155.396 352.214,157.888 353.211,158.054C354.208,158.22 354.54,155.067 352.657,155.176C350.774,155.286 350.441,157.901 351.383,157.701C352.324,157.501 351.91,153.708 349.322,155.534Z" style="fill:white;fill-rule:nonzero;"/>
                    <path d="M351.278,166.174C352.408,167.358 353.796,166.631 353.796,166.631C353.796,166.631 353.932,167.521 352.537,167.406C351.14,167.291 351.278,166.174 351.278,166.174Z" style="fill:rgb(227,230,236);fill-rule:nonzero;"/>
                    <path d="M353.621,162.23C353.79,161.712 354.435,161.236 354.73,161.615C355.025,161.993 354.508,162.799 354.106,162.756C353.706,162.714 353.459,162.727 353.621,162.23Z" style="fill:rgb(227,230,236);fill-rule:nonzero;"/>
                    <path d="M345.249,160.953C344.154,161.047 343.929,161.799 344.44,162.118C344.952,162.436 346.69,162.794 346.243,162.118C345.796,161.443 346.061,160.883 345.249,160.953Z" style="fill:rgb(227,230,236);fill-rule:nonzero;"/>
                    <path d="M347.818,158.184C346.655,158.601 347.795,156.815 348.162,157.015C348.529,157.215 348.505,157.917 348.162,158.05C347.818,158.184 348.377,157.984 347.818,158.184Z" style="fill:rgb(227,230,236);fill-rule:nonzero;"/>
                    <path d="M340.714,168C342.402,168.993 342.552,169.986 341.757,169.936C340.962,169.886 340.208,169.291 339.964,168.198C339.721,167.105 340.714,168 340.714,168Z" style="fill:white;fill-rule:nonzero;"/>
                    <path d="M348.726,170.234C350.513,169.938 353.02,169.747 352.303,170.234C349.67,172.022 347.602,170.421 348.726,170.234Z" style="fill:white;fill-rule:nonzero;"/>
                    <path d="M337.402,160.948C335.962,162.933 337.65,164.274 338.147,163.678C338.644,163.083 337.38,163.297 337.49,161.724C337.601,160.152 337.549,161.195 337.549,161.195L337.402,160.948Z" style="fill:rgb(178,192,203);fill-rule:nonzero;"/>
                    <path d="M347.234,172.977C348.26,173.764 348.567,173.268 348.705,173.62C348.843,173.972 347.465,174.697 346.822,173.904C346.18,173.111 346.802,172.645 347.234,172.977Z" style="fill:rgb(178,192,203);fill-rule:nonzero;"/>
                    <path d="M238.364,123.713C238.6,119.923 239.111,116.142 239.966,112.431C240.822,108.725 241.933,105.053 243.527,101.576C245.086,98.094 246.98,94.731 249.334,91.704C250.423,90.12 251.773,88.752 253.029,87.301C253.675,86.593 254.407,85.969 255.093,85.298C255.801,84.652 256.454,83.941 257.232,83.376C258.747,82.201 260.196,80.93 261.844,79.936L264.249,78.354C265.076,77.868 265.93,77.432 266.771,76.969C267.619,76.521 268.453,76.041 269.32,75.633L271.96,74.492C272.845,74.122 273.709,73.71 274.612,73.376C275.513,73.034 276.428,72.733 277.346,72.441C284.724,70.183 292.521,69.638 300.159,70.213L300.098,70.21L300.14,70.21L300.167,70.213C304.806,70.63 309.417,71.426 313.892,72.746C318.35,74.114 322.658,75.95 326.733,78.209C327.734,78.805 328.771,79.342 329.741,79.987L332.647,81.93L335.423,84.057C336.334,84.783 337.185,85.581 338.069,86.341C341.501,89.491 344.592,93.045 347.051,97.024C348.292,99.003 349.333,101.108 350.211,103.279C350.66,104.358 350.967,105.488 351.35,106.589C351.681,107.707 351.931,108.845 352.225,109.971C353.229,114.519 353.633,119.162 353.691,123.787C353.741,128.416 353.402,133.033 352.844,137.612C352.284,142.192 351.477,146.739 350.421,151.223C352.134,142.178 353.147,132.977 352.864,123.804C352.727,119.224 352.246,114.647 351.185,110.21C350.878,109.114 350.614,108.004 350.273,106.92C349.88,105.855 349.563,104.758 349.109,103.721C348.223,101.638 347.182,99.617 345.943,97.717C343.498,93.897 340.496,90.433 337.123,87.384C336.256,86.649 335.421,85.874 334.527,85.17L331.806,83.11L328.958,81.23C328.008,80.605 326.991,80.087 326.012,79.51C322.018,77.328 317.803,75.56 313.444,74.249C309.064,73.011 304.583,72.162 300.047,71.74L300.106,71.742L300.067,71.742L300.038,71.74C292.556,71.133 284.936,71.628 277.755,73.783C270.665,76.149 263.814,79.551 257.953,84.25C257.181,84.79 256.532,85.475 255.828,86.095C255.146,86.739 254.417,87.338 253.772,88.021C252.521,89.42 251.17,90.738 250.077,92.274C247.706,95.199 245.821,98.488 244.169,101.871C242.499,105.257 241.295,108.863 240.339,112.521C239.4,116.188 238.748,119.935 238.364,123.713Z" style="fill:rgb(150,6,6);fill-rule:nonzero;"/>
                    <path d="M329.62,101.113C332.002,102.567 334.214,104.323 336.114,106.436C337.041,107.508 337.925,108.65 338.603,109.933C339.3,111.203 339.836,112.593 340.066,114.051C340.201,114.781 340.245,115.517 340.283,116.193L340.391,118.275C340.467,119.663 340.482,121.055 340.49,122.447C340.462,125.225 340.376,128.044 339.738,130.764C339.812,127.987 339.592,125.243 339.367,122.493L338.995,118.373L338.793,116.312C338.713,115.61 338.679,114.959 338.542,114.33C338.042,111.781 336.715,109.426 335.082,107.283C333.468,105.109 331.529,103.149 329.62,101.113Z" style="fill:rgb(150,6,6);fill-rule:nonzero;"/>
                    <path d="M338.42,113.797C338.33,112.109 338.192,110.401 337.993,108.712C337.887,107.868 337.776,107.021 337.61,106.188C337.431,105.363 337.277,104.51 336.823,103.78C337.389,104.437 337.685,105.281 337.993,106.083C338.292,106.896 338.533,107.725 338.772,108.556C339.236,110.223 339.638,111.895 339.996,113.599C340.087,114.03 339.811,114.453 339.38,114.544C338.949,114.633 338.526,114.358 338.435,113.927L338.42,113.809L338.42,113.797Z" style="fill:rgb(150,6,6);fill-rule:nonzero;"/>
                    <path d="M266.968,119.596C267.014,116.185 267.807,112.769 269.241,109.621C269.975,108.053 270.884,106.559 271.99,105.199C272.545,104.519 273.155,103.878 273.846,103.303C274.196,103.018 274.56,102.747 274.972,102.513C275.388,102.286 275.824,102.059 276.451,102.022C276.757,102.008 277.194,102.098 277.502,102.427C277.796,102.751 277.869,103.126 277.888,103.406C277.915,103.984 277.797,104.445 277.675,104.888C277.418,105.768 277.069,106.559 276.732,107.35C276.051,108.922 275.343,110.454 274.835,112.014C274.708,112.403 274.596,112.794 274.502,113.182C274.418,113.549 274.306,114.036 274.338,114.174C274.36,114.365 274.452,114.49 274.635,114.598C274.817,114.698 275.08,114.728 275.27,114.662C275.465,114.597 275.577,114.486 275.652,114.285C275.676,114.223 275.677,114.204 275.704,114.087L275.769,113.768L275.908,113.133C276.098,112.291 276.308,111.454 276.539,110.621C277.005,108.958 277.544,107.314 278.227,105.699C278.576,104.891 278.953,104.091 279.464,103.31C279.726,102.922 280.005,102.532 280.431,102.171C280.675,101.973 280.813,101.88 281.1,101.72C281.243,101.653 281.407,101.561 281.722,101.541C281.872,101.529 282.084,101.567 282.259,101.657C282.43,101.75 282.562,101.881 282.638,101.99C282.924,102.438 282.904,102.687 282.954,102.952C282.981,103.207 282.987,103.439 282.989,103.67C282.99,104.127 282.967,104.564 282.936,105C282.874,105.869 282.78,106.722 282.683,107.573L282.073,112.639C281.979,113.479 281.893,114.319 281.84,115.153C281.793,115.976 281.755,116.836 281.873,117.562C281.901,117.733 281.96,117.902 281.998,117.956L281.966,117.958L281.956,117.96C282.07,117.935 282.33,117.548 282.473,117.204C282.798,116.475 283.032,115.654 283.273,114.846C284.228,111.594 285.075,108.247 286.527,105.154C285.41,108.38 284.733,111.698 284.025,115.042C283.83,115.878 283.635,116.711 283.312,117.558C283.229,117.77 283.135,117.984 283.005,118.202C282.87,118.413 282.72,118.657 282.373,118.841C282.194,118.927 281.981,118.972 281.742,118.922C281.495,118.873 281.306,118.708 281.197,118.567C280.981,118.276 280.921,118.023 280.856,117.783C280.652,116.833 280.683,115.973 280.695,115.101C280.72,114.234 280.776,113.377 280.841,112.522C280.97,110.814 281.14,109.119 281.3,107.43C281.377,106.588 281.444,105.747 281.481,104.916C281.5,104.502 281.51,104.089 281.499,103.694C281.492,103.499 281.481,103.306 281.458,103.137C281.448,102.986 281.365,102.797 281.41,102.889C281.419,102.944 281.674,103.091 281.782,103.064C281.885,103.054 281.847,103.048 281.803,103.078L281.417,103.344C281.191,103.533 280.96,103.838 280.753,104.156C280.334,104.803 279.982,105.549 279.663,106.306C279.026,107.83 278.52,109.434 278.065,111.047C277.837,111.854 277.627,112.668 277.437,113.484L277.299,114.095L277.233,114.402C277.213,114.492 277.174,114.683 277.118,114.819C276.916,115.423 276.355,115.973 275.726,116.143C275.101,116.332 274.453,116.253 273.888,115.948C273.323,115.651 272.863,115.004 272.814,114.339C272.776,114.019 272.836,113.672 272.877,113.482C272.917,113.255 272.97,113.036 273.023,112.816C273.132,112.378 273.269,111.954 273.414,111.536C273.999,109.869 274.76,108.321 275.466,106.785C275.816,106.02 276.159,105.252 276.406,104.504C276.529,104.135 276.615,103.755 276.611,103.479C276.61,103.338 276.571,103.277 276.579,103.279C276.593,103.289 276.585,103.26 276.469,103.255C276.238,103.251 275.87,103.379 275.543,103.554C275.207,103.728 274.877,103.954 274.558,104.195C273.922,104.687 273.331,105.262 272.775,105.873C271.666,107.099 270.727,108.495 269.931,109.967C268.31,112.909 267.37,116.216 266.968,119.596Z" style="fill:rgb(237,95,95);fill-rule:nonzero;"/>
                    <path d="M242.367,121.593C241.708,117.419 242.44,113.141 243.58,109.099C244.749,105.041 246.483,101.157 248.584,97.493C250.752,93.871 253.304,90.452 256.362,87.527C257.894,86.072 259.54,84.734 261.308,83.578C263.088,82.445 264.974,81.47 266.968,80.801C265.042,81.637 263.214,82.672 261.527,83.9C259.827,85.108 258.249,86.479 256.79,87.964C253.869,90.931 251.355,94.29 249.269,97.895C247.139,101.475 245.44,105.309 244.162,109.276C243.522,111.259 243.013,113.288 242.68,115.347C242.329,117.404 242.201,119.501 242.367,121.593Z" style="fill:rgb(232,40,40);fill-rule:nonzero;"/>
                    <path d="M351.11,129.449C351.669,125.273 351.087,121.11 350.176,117.08C349.222,113.049 347.863,109.117 346.109,105.373C344.369,101.624 342.234,98.057 339.676,94.814C337.105,91.585 334.071,88.691 330.458,86.523C334.38,88.098 337.804,90.839 340.624,94.014C343.465,97.199 345.734,100.856 347.55,104.702C349.325,108.569 350.659,112.643 351.387,116.834C352.096,120.997 352.324,125.384 351.11,129.449Z" style="fill:rgb(237,95,95);fill-rule:nonzero;"/>
                    <path d="M289.171,115.595C289.471,113.038 289.906,110.484 291.016,108.031C291.323,107.427 291.661,106.82 292.239,106.283C292.526,106.023 292.909,105.764 293.416,105.693C293.922,105.614 294.456,105.804 294.805,106.077C295.508,106.636 295.832,107.339 296.058,108.049L296.57,109.907C296.92,111.116 297.291,112.325 297.746,113.443C297.97,113.982 298.272,114.55 298.534,114.831L298.615,114.914L298.537,114.931C298.594,114.924 298.777,114.708 298.899,114.482C300.064,112.285 301.162,109.942 302.323,107.642C301.881,110.211 301.099,112.648 300.1,115.097C299.923,115.429 299.769,115.792 299.28,116.134C299.041,116.305 298.627,116.407 298.283,116.322C297.946,116.242 297.715,116.077 297.541,115.927C296.877,115.309 296.627,114.682 296.325,114.063C295.766,112.826 295.404,111.57 295.081,110.307C294.915,109.691 294.77,109.015 294.651,108.438C294.528,107.928 294.268,107.416 293.968,107.161C293.814,107.037 293.7,107.004 293.566,107C293.43,106.997 293.232,107.079 293.038,107.233C292.642,107.538 292.284,108.036 291.977,108.55C290.737,110.67 289.985,113.167 289.171,115.595Z" style="fill:rgb(237,95,95);fill-rule:nonzero;"/>
                    <path d="M339.739,93.056C339.996,93.572 340.249,94.088 340.474,94.649C340.581,94.95 340.707,95.182 340.744,95.674C340.729,95.799 340.779,96.029 340.472,96.324C340.13,96.571 339.888,96.479 339.768,96.463C339.511,96.395 339.375,96.309 339.227,96.228C338.166,95.559 337.346,94.826 336.444,94.112C334.683,92.676 332.921,91.261 331.1,89.919C327.467,87.235 323.626,84.818 319.524,82.94C317.475,81.989 315.362,81.229 313.19,80.565C311.035,79.865 308.85,79.268 306.653,78.726C304.45,78.213 302.225,77.784 299.982,77.544C298.861,77.41 297.734,77.368 296.61,77.368C295.503,77.389 294.333,77.477 293.345,77.822L293.287,77.403C295.887,77.907 298.453,78.523 301.004,79.211C303.553,79.901 306.079,80.68 308.561,81.579C311.043,82.481 313.485,83.503 315.814,84.751C318.113,86.02 320.392,87.475 322.055,89.542C320.364,87.499 318.072,86.082 315.762,84.85C313.424,83.638 310.973,82.652 308.487,81.789C305.999,80.927 303.47,80.187 300.919,79.533C298.369,78.883 295.795,78.305 293.21,77.841L293.189,77.838C293.071,77.816 292.993,77.704 293.014,77.587L293.152,77.422C294.308,76.996 295.445,76.923 296.599,76.876C297.747,76.859 298.896,76.887 300.034,77.007C302.313,77.218 304.566,77.619 306.796,78.106C309.018,78.621 311.228,79.192 313.407,79.866C315.591,80.499 317.773,81.252 319.862,82.188C324.056,84.04 327.983,86.441 331.694,89.104C333.552,90.434 335.353,91.842 337.133,93.254C338.017,93.941 338.924,94.703 339.796,95.233C339.894,95.29 340.013,95.341 340.031,95.342C340.044,95.357 339.964,95.282 339.734,95.437C339.542,95.637 339.601,95.706 339.587,95.694C339.586,95.617 339.489,95.314 339.39,95.087C339.186,94.597 338.932,94.094 338.677,93.597C338.524,93.305 338.638,92.944 338.93,92.793C339.221,92.641 339.582,92.754 339.734,93.046L339.739,93.056Z" style="fill:rgb(237,95,95);fill-rule:nonzero;"/>
                    <path d="M298.837,73.914C301.392,73.315 304.081,73.365 306.683,73.668C309.299,73.973 311.864,74.572 314.378,75.319C316.882,76.098 319.342,77.027 321.691,78.2C324.019,79.375 326.354,80.728 328.147,82.655C325.948,81.255 323.575,80.285 321.189,79.335C318.793,78.417 316.369,77.573 313.915,76.839C311.468,76.079 308.988,75.431 306.486,74.888C303.976,74.367 301.448,73.973 298.837,73.914Z" style="fill:rgb(237,95,95);fill-rule:nonzero;"/>
                    <path d="M349.374,119.596C350.073,120.9 350.272,122.407 350.376,123.864C350.474,125.333 350.407,126.806 350.256,128.262C350.095,129.719 349.878,131.169 349.559,132.596C349.248,134.024 348.891,135.443 348.414,136.825C348.651,135.383 348.892,133.95 349.108,132.514C349.319,131.077 349.516,129.641 349.663,128.202C349.828,126.763 349.908,125.32 349.92,123.879C349.938,123.156 349.88,122.439 349.813,121.72L349.658,120.648C349.559,120.303 349.465,119.953 349.374,119.596Z" style="fill:rgb(252,101,101);fill-rule:nonzero;"/>
                    <path d="M253.791,102.3C255.865,100.472 258.095,98.74 260.7,97.587C261.98,96.966 263.352,96.573 264.717,96.202C266.094,95.884 267.485,95.655 268.876,95.491C270.269,95.344 271.661,95.264 273.053,95.206C274.443,95.198 275.832,95.157 277.218,95.226C279.989,95.301 282.75,95.527 285.501,95.915C282.734,96.19 279.978,96.309 277.233,96.466C274.488,96.619 271.751,96.756 269.053,97.069C266.351,97.353 263.693,97.824 261.165,98.733C258.622,99.604 256.247,101.005 253.791,102.3Z" style="fill:rgb(232,40,40);fill-rule:nonzero;"/>
                </g>
            </g>
        </g>
    </g>
</svg>
